<?xml version="1.0" encoding="UTF-8"?>
<svg version="1.1" xmlns="http://www.w3.org/2000/svg" width="100%" height="100%" viewBox="1360 1980 4240 1080" preserveAspectRatio="xMidYMid meet">
<path d="M0 0 C0.6285791 0.25217285 1.2571582 0.5043457 1.90478516 0.76416016 C14.28034743 5.81534607 26.21262206 11.95140059 38.22167969 17.80639648 C48.11741815 22.62739905 58.06195628 27.32152192 68.05932617 31.92895508 C77.15122504 36.12487184 86.19892281 40.40872034 95.24075317 44.71121216 C111.93528177 52.65191497 128.70663723 60.40014738 145.56005859 67.99707031 C150.3721255 70.16666026 155.18027831 72.34485959 159.98828125 74.5234375 C174.09684107 80.91469991 188.20815775 87.29975177 202.3359375 93.6484375 C203.17543442 94.02569473 204.01493134 94.40295197 204.87986755 94.79164124 C208.23492936 96.2992376 211.59001533 97.8067801 214.94522095 99.3140564 C227.28961622 104.8610772 239.60522747 110.46815226 251.90466309 116.11407471 C262.96007669 121.18650319 274.0615105 126.14705789 285.1875 131.0625 C297.92112871 136.68946422 310.56003814 142.48957871 323.14892578 148.43261719 C332.41797743 152.80598554 341.72527597 157.08674397 351.0625 161.3125 C363.19067715 166.8028422 375.29128844 172.3499599 387.375 177.9375 C404.12576906 185.68143449 420.90102956 193.37031968 437.68945312 201.03222656 C444.23108223 204.01800928 450.7704969 207.008636 457.31011963 209.99880981 C459.49425258 210.99737234 461.67850364 211.99567608 463.86279297 212.99389648 C470.48190921 216.01897253 477.10045158 219.04527874 483.71652222 222.07701111 C497.91321234 228.58235553 512.11502775 235.07176082 526.375 241.4375 C538.95482846 247.05396461 551.47587831 252.79354298 563.98852539 258.55786133 C573.56770345 262.96977612 583.16075039 267.34927548 592.76818848 271.69927979 C604.88681127 277.1869239 616.95660614 282.76839083 628.99111938 288.43804932 C639.12334487 293.20971906 649.29569009 297.88462308 659.5 302.5 C670.37302274 307.41783361 681.20460506 312.41402467 692 317.5 C703.32808661 322.83570175 714.69600664 328.07399339 726.10409546 333.23635864 C736.70837721 338.03523986 747.28153784 342.89778221 757.84185791 347.79260254 C773.81838161 355.19613601 789.8561584 362.44555783 805.96572876 369.55487061 C807.03456802 370.02657684 807.03456802 370.02657684 808.125 370.5078125 C808.81991547 370.81438782 809.51483093 371.12096313 810.23080444 371.43682861 C814.10751483 373.15079674 817.96803234 374.89416427 821.8125 376.6796875 C854.67804411 391.94358795 889.05544753 400.81287401 925.21508789 403.31738281 C943.84537274 404.65313262 943.84537274 404.65313262 950.3203125 410.8515625 C952.81298222 415.52386901 952.91713582 419.89174258 953 425.125 C953.02465332 426.09147461 953.04930664 427.05794922 953.07470703 428.05371094 C952.89523364 434.85023915 952.89523364 434.85023915 950.48095703 437.95092773 C943.86469387 443.73425843 937.06454845 445.98546898 928.38671875 446.31640625 C927.31180176 446.35862305 926.23688477 446.40083984 925.12939453 446.44433594 C923.99356934 446.48333008 922.85774414 446.52232422 921.6875 446.5625 C920.51558105 446.6027832 919.34366211 446.64306641 918.13623047 446.68457031 C915.80462662 446.76114292 913.47291885 446.83462347 911.14111328 446.90478516 C909.2747242 446.96135998 907.40843931 447.02197931 905.54248047 447.09130859 C860.45430972 448.73030901 817.26594215 427.40401234 777.76171875 408.2578125 C769.95516707 404.48139166 762.10183835 400.80598719 754.25 397.125 C743.60905217 392.13550217 733.00519948 387.08035942 722.4375 381.9375 C708.87524628 375.35145305 695.16988748 369.10607618 681.42750549 362.90684509 C674.09649156 359.5975669 666.78518265 356.24558577 659.47344971 352.89398193 C648.17037867 347.71391191 636.85242919 342.57117187 625.5 337.5 C611.19331619 331.10830604 596.94319851 324.59600837 582.69836426 318.06793213 C577.589958 315.7271234 572.47929981 313.39129672 567.3671875 311.05859375 C550.45541217 303.3402554 533.56412648 295.57874746 516.68847656 287.78173828 C505.63209118 282.67374076 494.56865169 277.58135829 483.5 272.5 C470.64021474 266.59549311 457.78575637 260.67955514 444.9375 254.75 C444.11318481 254.36958557 443.28886963 253.98917114 442.4395752 253.597229 C432.20242385 248.87206014 421.9726822 244.13139719 411.75 239.375 C400.06780123 233.94141918 388.35455963 228.57737205 376.63330078 223.22875977 C368.93905513 219.7172916 361.24845318 216.19824506 353.56640625 212.66015625 C335.4963809 204.3379751 317.40255923 196.07917833 299.22631836 187.99078369 C296.7424849 186.88539745 294.25893493 185.77937558 291.77539062 184.67333984 C286.92755144 182.51465602 282.07913442 180.35727399 277.2303772 178.20065308 C275.25062373 177.32007116 273.27094785 176.43931478 271.29135132 175.55838013 C257.62137319 169.47448788 257.62137319 169.47448788 243.91015625 163.484375 C242.76708008 162.98824707 241.62400391 162.49211914 240.44628906 161.98095703 C238.46004383 161.12152995 236.47138236 160.26764823 234.47949219 159.42138672 C229.14207222 157.11129398 224.23481385 154.45599616 219.32543945 151.33300781 C215.74734908 149.28194498 211.96141944 148.09082564 208 147 C208 146.34 208 145.68 208 145 C207.49984375 144.75507813 206.9996875 144.51015625 206.484375 144.2578125 C203.774742 142.88595428 201.09709 141.46083633 198.41772461 140.03100586 C189.98256951 135.53269981 181.48072841 131.19358237 172.91357422 126.953125 C170.53950965 125.77063609 168.17884878 124.56220048 165.81591797 123.35766602 C120.57762528 97.99296875 120.57762528 97.99296875 71 90 C68.90333086 90.79034598 67.04788235 91.7582533 65.09765625 92.859375 C62.78756902 94.11551182 60.45345483 95.05607539 58 96 C54.91381925 97.20436322 51.94364506 98.48069933 49 100 C45.24157528 101.93983212 41.37482676 103.46348224 37.4375 105 C35.22556113 105.9074621 33.12327304 106.90411714 31 108 C27.24157528 109.93983212 23.37482676 111.46348224 19.4375 113 C17.22556113 113.9074621 15.12327304 114.90411714 13 116 C9.24157528 117.93983212 5.37482676 119.46348224 1.4375 121 C-1.40612467 122.16661525 -4.10153098 123.53541934 -6.82958984 124.94604492 C-9.07421368 126.0360383 -11.33897439 126.95829699 -13.6640625 127.86328125 C-18.63546862 129.83238009 -23.50917265 131.97230445 -28.375 134.1875 C-30.15363667 134.99220775 -31.93228275 135.79689472 -33.7109375 136.6015625 C-34.60135742 137.00536133 -35.49177734 137.40916016 -36.40917969 137.82519531 C-40.27047774 139.57609676 -44.13461407 141.32064449 -48 143.0625 C-49.17006592 143.59061279 -49.17006592 143.59061279 -50.36376953 144.12939453 C-55.36047544 146.37929513 -60.3666963 148.60681504 -65.38024902 150.81886292 C-68.54281181 152.21423218 -71.70420832 153.61223646 -74.86572266 155.00997925 C-76.42661105 155.69902133 -77.98811216 156.3866775 -79.55029297 157.07278442 C-89.55719079 161.46811145 -99.38500948 166.11330894 -109.13146973 171.05813599 C-114.30548816 173.66618673 -119.5316042 176.16983675 -124.75 178.6875 C-125.36350311 178.98369232 -125.97700623 179.27988464 -126.60910034 179.58505249 C-136.70066805 184.45356926 -146.84167878 189.20857118 -157.01391602 193.90649414 C-165.67556003 197.90973484 -174.3081423 201.97148948 -182.93151855 206.05645752 C-202.71393811 215.42637309 -222.56774991 224.6387644 -242.43963623 233.81713867 C-244.97581931 234.98882877 -247.5116571 236.16126259 -250.04736328 237.33398438 C-261.3603167 242.56597336 -272.67750101 247.78869949 -284 253 C-285.12634857 253.51853546 -285.12634857 253.51853546 -286.27545166 254.04754639 C-303.9484727 262.18183197 -321.66542016 270.20249605 -339.46020508 278.06692505 C-351.42849964 283.36120177 -363.30020086 288.83749261 -375.13354492 294.42602539 C-384.55069434 298.8706609 -394.01160406 303.20974418 -403.5 307.5 C-417.80894668 313.97303461 -432.03575699 320.61110391 -446.24594116 327.29763794 C-456.34920463 332.0489676 -466.48319313 336.73436119 -476.61279297 341.42919922 C-479.94194684 342.97307813 -483.27000457 344.5192925 -486.59765625 346.06640625 C-501.65580002 353.06647381 -516.72704784 360.03780653 -531.80712891 366.99047852 C-533.48861486 367.76577022 -535.17009269 368.54107954 -536.8515625 369.31640625 C-537.68982574 369.70292862 -538.52808899 370.08945099 -539.39175415 370.48768616 C-545.23071512 373.18110075 -551.06537082 375.88369197 -556.8984375 378.58984375 C-574.31453787 386.66454381 -591.77442552 394.61963603 -609.33642578 402.37231445 C-618.12636305 406.2558954 -626.85927439 410.23752925 -635.5625 414.3125 C-670.39918009 430.53305632 -707.25351692 445.52592692 -746.2734375 445.1953125 C-747.56319489 445.1924826 -748.85295227 445.18965271 -750.18179321 445.18673706 C-753.55843318 445.17921576 -756.93489234 445.15967116 -760.3114624 445.1373291 C-763.77792924 445.11661786 -767.24442621 445.10768215 -770.7109375 445.09765625 C-777.47403113 445.07641031 -784.23700681 445.0424196 -791 445 C-791 444.34 -791 443.68 -791 443 C-791.8353125 442.690625 -791.8353125 442.690625 -792.6875 442.375 C-796.0952644 440.34876171 -798.35537243 438.6067508 -800 435 C-801.31213014 428.43167604 -801.53407944 422.60855614 -798.0703125 416.71875 C-790.47271663 407.91405946 -783.26261163 404.84963628 -771.79098511 403.97761536 C-770.41012089 403.88261462 -769.02900264 403.79124639 -767.64767456 403.70324707 C-717.84183005 400.43923919 -673.99283247 380.92853254 -629.39067078 359.99084473 C-621.40267537 356.24489583 -613.39254014 352.54681697 -605.38467407 348.84359741 C-591.67329325 342.50176813 -577.97696391 336.12983546 -564.3125 329.6875 C-563.61591278 329.35911133 -562.91932556 329.03072266 -562.20162964 328.69238281 C-560.80962283 328.03612992 -559.41761942 327.37986982 -558.02561951 326.72360229 C-557.34685257 326.4036026 -556.66808563 326.08360291 -555.96875 325.75390625 C-554.96165733 325.27910324 -554.96165733 325.27910324 -553.93421936 324.79470825 C-529.02240493 313.05393335 -504.01476466 301.51934591 -479 290 C-478.20108337 289.63201294 -477.40216675 289.26402588 -476.57904053 288.8848877 C-458.17241615 280.40684991 -439.75043761 271.96396836 -421.29785156 263.58642578 C-384.22263668 246.75368108 -347.24505285 229.7098235 -310.32275391 212.54443359 C-304.54942863 209.86096146 -298.77462407 207.18067578 -293 204.5 C-286.15210625 201.32082366 -279.30430053 198.14145862 -272.45703125 194.9609375 C-270.24219745 193.93227025 -268.02735354 192.90362475 -265.8125 191.875 C-264.68811523 191.35276855 -263.56373047 190.83053711 -262.40527344 190.29248047 C-255.35429544 187.01860474 -248.30100856 183.74975872 -241.24609375 180.484375 C-237.74733537 178.8647139 -234.2486524 177.24489 -230.75 175.625 C-229.87066803 175.21791809 -228.99133606 174.81083618 -228.08535767 174.39141846 C-215.88925094 168.74416402 -203.71334949 163.05582085 -191.55230713 157.33352661 C-180.92973823 152.33866621 -170.25559306 147.464581 -159.55981445 142.62878418 C-148.99338242 137.84885053 -138.48340456 132.9591875 -128 128 C-115.58228601 122.12733902 -103.11504684 116.37705225 -90.60107422 110.71264648 C-89.22492058 110.08971261 -87.84878134 109.46674693 -86.47265625 108.84375 C-85.44232269 108.37733849 -85.44232269 108.37733849 -84.39117432 107.90150452 C-76.90109417 104.50760613 -69.42962708 101.0734029 -61.95925903 97.63638306 C-59.63380674 96.56655157 -57.30804356 95.49739891 -54.98217773 94.4284668 C-48.73101906 91.55536929 -42.47988959 88.68221994 -36.23144531 85.80322266 C-32.31732322 83.99990436 -28.40166916 82.19994928 -24.48504639 80.40206909 C-23.03042577 79.73362844 -21.57633587 79.06403126 -20.12286377 78.39309692 C-12.41120568 74.83393146 -4.6648401 71.38001267 3.17578125 68.11328125 C4.22962006 67.66998978 4.22962006 67.66998978 5.30474854 67.21774292 C8.98756662 65.70245214 12.52135419 64.53101237 16.4375 63.8125 C17.613125 63.544375 18.78875 63.27625 20 63 C21.25435427 61.01842991 21.25435427 61.01842991 22 59 C21.34 58.67 20.68 58.34 20 58 C19.34257812 57.57074219 18.68515625 57.14148437 18.0078125 56.69921875 C2.33230457 47.84357466 -14.19516505 44.3915444 -31.875 47.9375 C-48.87970112 53.05744407 -64.93782652 61.74664851 -80.93457031 69.3515625 C-91.16203333 74.21051405 -101.43040595 78.96510556 -111.75 83.625 C-122.54068794 88.49936542 -133.28893066 93.45304329 -144 98.5 C-154.60993553 103.49792028 -165.25233698 108.41499352 -175.9375 113.25 C-188.44850418 118.91140518 -200.9205229 124.65281404 -213.375 130.4375 C-226.10776976 136.35072066 -238.85188833 142.23690198 -251.625 148.0625 C-263.93191635 153.6755979 -276.22157586 159.32484294 -288.5 165 C-301.53401172 171.02410284 -314.58126411 177.01796743 -327.64447021 182.97848511 C-339.32004865 188.3066932 -350.97589885 193.67667587 -362.625 199.0625 C-375.22992203 204.8900503 -387.85283368 210.67512228 -400.50152588 216.40701294 C-411.8576741 221.55456472 -423.18332274 226.76629594 -434.5 232 C-446.52388836 237.56050832 -458.55986402 243.09203729 -470.625 248.5625 C-482.22347807 253.82150608 -493.80530772 259.1154536 -505.375 264.4375 C-543.08108266 281.7800559 -580.84404252 298.99885436 -618.67236328 316.07324219 C-619.55476685 316.47153229 -620.43717041 316.86982239 -621.34631348 317.28018188 C-623.09783416 318.07074547 -624.8493801 318.86125311 -626.60095215 319.65170288 C-631.15533393 321.70875044 -635.70431144 323.77680119 -640.24543762 325.86294556 C-674.60405724 341.64617653 -712.96522075 358.10952635 -751.48828125 358.16796875 C-752.27212692 358.17129715 -753.0559726 358.17462555 -753.86357117 358.17805481 C-755.51149922 358.18308432 -757.15943732 358.18546438 -758.80737305 358.18530273 C-761.29558531 358.18748516 -763.78335047 358.20567231 -766.27148438 358.22460938 C-789.4327264 358.31531958 -789.4327264 358.31531958 -797.55273438 352.65039062 C-800.47221404 349.32115943 -799.98643662 345.45608297 -799.75 341.25 C-799.74742187 340.3940625 -799.74484375 339.538125 -799.7421875 338.65625 C-799.55076489 331.63742083 -797.89428446 325.24694938 -793.140625 319.9140625 C-792.51671875 319.48867187 -791.8928125 319.06328125 -791.25 318.625 C-790.63640625 318.18414063 -790.0228125 317.74328125 -789.390625 317.2890625 C-781.62566765 313.10207569 -774.28578211 312.34458568 -765.60940552 311.72155762 C-719.52237648 308.34641401 -678.62180135 293.46316549 -637.11767578 273.99206543 C-633.8005223 272.43808189 -630.4782934 270.89505714 -627.15625 269.3515625 C-621.58673053 266.76185804 -616.02236567 264.16130612 -610.46037292 261.55548096 C-606.24334144 259.58035625 -602.02292276 257.61262377 -597.80078125 255.6484375 C-583.02079138 248.77112428 -568.27489119 241.8246706 -553.54718018 234.83609009 C-543.00595683 229.83470778 -532.4528166 224.86101617 -521.875 219.9375 C-511.02588934 214.88730406 -500.19479314 209.80021315 -489.375 204.6875 C-488.24652145 204.15444748 -488.24652145 204.15444748 -487.09524536 203.61062622 C-479.44253651 199.99563447 -471.79165472 196.37684617 -464.14572144 192.74754333 C-445.01835574 183.66939045 -425.82803191 174.75328388 -406.52929688 166.04541016 C-401.53244699 163.790152 -396.539705 161.52585894 -391.546875 159.26171875 C-376.36392222 152.37893727 -361.18099444 145.49790152 -345.9375 138.75 C-332.01435865 132.58587483 -318.15602512 126.28208882 -304.30322266 119.96191406 C-300.71904286 118.32705359 -297.13291267 116.69652066 -293.54621887 115.06718445 C-276.2930986 107.22760554 -259.10836293 99.25649548 -241.98242188 91.14282227 C-229.64617878 85.29835165 -217.27929628 79.52375917 -204.88769531 73.79736328 C-202.08158003 72.50053312 -199.27639754 71.20170514 -196.47167969 69.90185547 C-172.99004618 59.01957273 -149.45133022 48.28942114 -125.7890625 37.8046875 C-102.13108926 27.29901871 -78.81271683 16.3056326 -56.09545898 3.88525391 C-37.28963979 -6.37095082 -20.14145773 -8.23260082 0 0 Z " fill="#C39E5E" transform="translate(3274,2006)"/>
<path d="M0 0 C4.30222253 -0.02008844 8.60441943 -0.03246128 12.90667725 -0.0425415 C14.10393433 -0.04767258 15.30119141 -0.05280365 16.534729 -0.05809021 C45.84266477 -0.07795195 78.75459153 5.55930645 100.75042725 26.61761475 C118.90769696 46.10346518 123.74663708 70.95619425 123.24261475 96.79730225 C122.29597402 122.5743293 111.06072154 142.48279726 92.95355225 160.33636475 C88.95567244 163.96504721 84.72575249 167.12100463 80.32855225 170.246521 C77.91480577 171.81197167 77.91480577 171.81197167 76.99261475 174.02386475 C78.16823975 174.33323975 79.34386475 174.64261475 80.55511475 174.96136475 C91.88764165 178.75079015 102.01369604 186.34103344 110.99261475 194.02386475 C111.96198975 194.79085693 112.93136475 195.55784912 113.93011475 196.3480835 C117.21885488 199.09208214 119.82151935 202.2029018 122.43011475 205.58636475 C122.90674561 206.20350342 123.38337646 206.82064209 123.87445068 207.45648193 C135.51561494 222.78624799 142.93438289 239.74052862 143.99261475 259.02386475 C144.06222412 260.20980225 144.1318335 261.39573975 144.20355225 262.61761475 C144.88780237 286.82954205 138.94892912 317.15525577 122.36761475 335.77386475 C120.92626646 337.20780884 119.46966791 338.62672677 117.99261475 340.02386475 C117.46667725 340.60523193 116.94073975 341.18659912 116.39886475 341.7855835 C91.34170459 369.20783275 51.63600058 379.42311956 15.99261475 382.02386475 C12.3879946 382.17004052 8.78745609 382.21014642 5.18011475 382.22698975 C4.15650848 382.23382278 3.13290222 382.24065582 2.07827759 382.24769592 C-1.28364347 382.26485356 -4.64542275 382.27104605 -8.00738525 382.27386475 C-9.74734772 382.27687088 -9.74734772 382.27687088 -11.52246094 382.27993774 C-44.02480503 382.29349122 -76.6283244 380.85739804 -109.00738525 378.02386475 C-113.60842875 365.89384099 -114.30691245 353.51651665 -114.26135254 340.64500427 C-114.26366353 339.25340116 -114.26684429 337.86179927 -114.27080703 336.47019988 C-114.27907559 332.68824351 -114.27506642 328.90638943 -114.26883459 325.12443292 C-114.26427844 321.02971068 -114.27130929 316.9350051 -114.27679443 312.84028625 C-114.28565535 304.83673308 -114.28378155 296.83321755 -114.27796915 288.82966294 C-114.2734412 282.32406408 -114.27284464 275.81847573 -114.27501678 269.31287575 C-114.27532325 268.38484974 -114.27562972 267.45682372 -114.27594547 266.50067571 C-114.27658495 264.61511677 -114.27723338 262.72955783 -114.27789065 260.84399889 C-114.28358386 243.19384617 -114.2770511 225.54371428 -114.26628992 207.89356498 C-114.25734793 192.75852103 -114.25891375 177.62350775 -114.26812744 162.48846436 C-114.27883518 144.89108759 -114.2830424 127.29372901 -114.27690291 109.69634944 C-114.27626584 107.81949127 -114.2756371 105.9426331 -114.27501678 104.06577492 C-114.27470823 103.1424301 -114.27439968 102.21908529 -114.27408178 101.26776033 C-114.27235691 94.76961965 -114.27526532 88.27149055 -114.27997589 81.77335167 C-114.28558998 73.85526723 -114.28405683 65.93722244 -114.2734144 58.01914253 C-114.26816597 53.9815518 -114.26608694 49.94402713 -114.27271271 45.90643692 C-114.27869095 42.20748301 -114.27536628 38.50865615 -114.2647576 34.8097137 C-114.26148067 32.84464022 -114.26797755 30.87955786 -114.27487206 28.91449374 C-114.19588699 11.0486505 -114.19588699 11.0486505 -108.00738525 4.02386475 C-102.51592775 1.10021247 -98.04888206 0.58076647 -91.89215088 0.5914917 C-90.56079605 0.57620422 -90.56079605 0.57620422 -89.20254517 0.56060791 C-86.27284359 0.53048216 -83.34347159 0.52119297 -80.41363525 0.512146 C-78.34555019 0.49525616 -76.27747511 0.47710033 -74.20941162 0.45774841 C-68.7502159 0.41022071 -63.29106023 0.38048767 -57.83172607 0.35430908 C-52.3927936 0.32495047 -46.95401792 0.27798548 -41.51519775 0.23284912 C-30.24952809 0.14287192 -18.98386243 0.08134463 -7.71793365 0.03520966 C-5.14528356 0.02444191 -2.5726427 0.01239397 0 0 Z M-54.00738525 49.02386475 C-54.00738525 84.33386475 -54.00738525 119.64386475 -54.00738525 156.02386475 C-44.06255846 156.73420952 -34.43540567 157.20643524 -24.50738525 157.21136475 C-23.20929932 157.22361084 -21.91121338 157.23585693 -20.5737915 157.24847412 C-8.36682758 157.26676627 3.28717025 155.89856462 14.99261475 152.39886475 C15.86490723 152.14089111 16.73719971 151.88291748 17.63592529 151.61712646 C20.42881204 150.77456296 23.2116161 149.90484078 25.99261475 149.02386475 C26.97052979 148.71642334 27.94844482 148.40898193 28.95599365 148.09222412 C31.91762087 147.14349865 34.86226501 146.15418917 37.80511475 145.14886475 C38.7055249 144.85802002 39.60593506 144.56717529 40.53363037 144.26751709 C50.69837216 140.66257959 56.43496355 133.42169763 61.51605225 124.152771 C68.21567146 109.95595884 67.29326468 93.83362167 62.99261475 79.02386475 C57.77287477 65.54744517 50.80201781 58.73708289 38.027771 52.68792725 C28.09528524 48.35819776 17.63169192 47.86647257 6.93011475 47.89105225 C5.5066272 47.88961716 5.5066272 47.88961716 4.05438232 47.88815308 C2.04746433 47.88747567 0.0405441 47.88929914 -1.96636963 47.89349365 C-4.94363746 47.89875215 -7.92074766 47.89358386 -10.89801025 47.887146 C-25.31590455 47.89665648 -39.57585979 48.44660373 -54.00738525 49.02386475 Z M-54.00738525 203.02386475 C-54.00738525 245.26386475 -54.00738525 287.50386475 -54.00738525 331.02386475 C-38.79559673 331.63233629 -23.66954537 332.23315542 -8.45684814 332.26409912 C-6.5196365 332.27065206 -4.58243685 332.28441599 -2.64532471 332.30511475 C22.96687182 332.57874476 51.37426627 329.43313012 70.99261475 311.02386475 C84.66512565 296.09727566 84.59895987 276.0936196 83.99261475 257.02386475 C83.97327881 255.84179443 83.95394287 254.65972412 83.934021 253.4418335 C83.45164863 242.28879968 79.09896177 233.63094481 71.88323975 225.26605225 C70.25989193 223.34084223 69.02436703 221.48856075 67.74261475 219.33636475 C60.14713382 208.68263737 43.24372098 205.00616996 31.0668335 202.89886475 C21.11802396 201.55985675 11.11364322 201.76273892 1.09295654 201.8180542 C-2.27455415 201.83612154 -5.64178455 201.83856434 -9.00933838 201.83831787 C-11.23395002 201.84324297 -13.45855987 201.84907556 -15.6831665 201.855896 C-16.64765213 201.85700882 -17.61213776 201.85812164 -18.60585022 201.85926819 C-30.42810016 201.93514743 -42.173988 202.55052886 -54.00738525 203.02386475 Z " fill="#C39E5E" transform="translate(3013.0073852539063,2555.9761352539063)"/>
<path d="M0 0 C60.13261439 -0.55452175 121.38339495 -0.03818372 167.08764648 44.72393799 C181.75621645 59.48462941 193.56444503 77.09362276 202.08764648 96.03643799 C202.42538086 96.7848999 202.76311523 97.53336182 203.11108398 98.30450439 C227.01295692 152.25219975 226.09080289 219.17134579 205.34985352 273.89874268 C196.7141813 295.3659882 183.33040543 314.65057104 167.08764648 331.03643799 C166.40573242 331.76733643 165.72381836 332.49823486 165.02124023 333.25128174 C135.04718796 364.85231806 88.35894671 380.58392057 45.76168823 382.15945435 C37.18326721 382.36991459 28.60563164 382.37087375 20.02514648 382.34893799 C18.68045054 382.3482093 17.33575446 382.34771329 15.99105835 382.34744263 C-11.36347646 382.32771986 -38.63451738 381.10859681 -65.91235352 379.03643799 C-67.40878891 378.9378096 -67.40878891 378.9378096 -68.93545532 378.83718872 C-70.42219254 378.72686813 -70.42219254 378.72686813 -71.93896484 378.61431885 C-72.84133377 378.5515123 -73.7437027 378.48870575 -74.67341614 378.42399597 C-76.91235352 378.03643799 -76.91235352 378.03643799 -78.97485352 376.03643799 C-81.74900486 367.15915369 -82.19777152 359.14157639 -82.1663208 349.87921143 C-82.16862806 348.45067562 -82.17180637 347.02214101 -82.17577529 345.59360886 C-82.18409545 341.6863414 -82.1800107 337.77917211 -82.17380285 333.87190437 C-82.16926796 329.65098544 -82.17626726 325.43008309 -82.1817627 321.20916748 C-82.19064727 312.94758394 -82.18873885 304.68603678 -82.18293741 296.42445183 C-82.17841725 289.7089699 -82.17780956 282.99349815 -82.17998505 276.27801514 C-82.18029151 275.32155806 -82.18059798 274.36510099 -82.18091373 273.37966037 C-82.18155319 271.43652375 -82.18220162 269.49338714 -82.18285891 267.55025053 C-82.18855947 249.33738642 -82.18200862 231.12454246 -82.17125818 212.91168165 C-82.16232292 197.29049659 -82.16387504 181.66934126 -82.1730957 166.04815674 C-82.18380318 147.89963415 -82.18801017 129.75112922 -82.18187118 111.60260391 C-82.18123409 109.66668956 -82.18060535 107.7307752 -82.17998505 105.79486084 C-82.1796765 104.84239999 -82.17936794 103.88993913 -82.17905004 102.90861583 C-82.17732454 96.20264305 -82.1802351 89.49668149 -82.18494415 82.79071045 C-82.19055828 74.61632065 -82.18902532 66.44196926 -82.17838266 58.26758385 C-82.17313314 54.09838625 -82.17105697 49.92925264 -82.17768097 45.76005554 C-82.1836574 41.94062608 -82.18033744 38.1213197 -82.16972587 34.30190134 C-82.16644727 32.27197028 -82.17294765 30.24203062 -82.17984033 28.21210861 C-82.10843613 11.54188385 -82.10843613 11.54188385 -77.66235352 5.59893799 C-73.30687558 1.54042446 -68.9022404 0.79622507 -63.07373047 0.71759033 C-61.93558899 0.69773575 -60.79744751 0.67788116 -59.62481689 0.65742493 C-58.39583679 0.64585861 -57.16685669 0.6342923 -55.90063477 0.62237549 C-54.60405945 0.60287338 -53.30748413 0.58337128 -51.97161865 0.5632782 C-48.45320713 0.51110832 -44.93476215 0.4714113 -41.41615677 0.43494034 C-38.48307904 0.40348225 -35.55008938 0.36597898 -32.61707973 0.3287859 C-23.74091019 0.21708962 -14.86460476 0.13081923 -5.98806763 0.05454254 C-3.99203821 0.037133 -1.99601877 0.01859007 0 0 Z M-17.91235352 49.03643799 C-17.91235352 140.77643799 -17.91235352 232.51643799 -17.91235352 327.03643799 C23.7942805 333.29243309 73.23902944 334.98691633 109.83764648 309.75030518 C113.83919368 306.70225165 117.37251571 303.23849807 120.90014648 299.66143799 C121.68059326 298.87196777 122.46104004 298.08249756 123.26513672 297.269104 C146.80459739 273.03109983 161.11633622 242.26151337 161.29077148 208.19268799 C161.2977858 207.27382309 161.30480011 206.35495819 161.31202698 205.4082489 C161.32946616 202.45092838 161.33588114 199.49380807 161.33764648 196.53643799 C161.33832123 195.52711212 161.33899597 194.51778625 161.33969116 193.47787476 C161.29704714 153.3586209 155.08403117 110.7892888 125.85717773 80.74346924 C95.88342119 52.33441124 55.52854742 48.0599588 16.15014648 47.91143799 C15.16385254 47.90668457 14.17755859 47.90193115 13.16137695 47.89703369 C2.7644683 47.91958845 -7.49149278 48.54020652 -17.91235352 49.03643799 Z " fill="#C29D5E" transform="translate(4176.912353515625,2555.9635620117188)"/>
<path d="M0 0 C1.67008873 -0.0076664 1.67008873 -0.0076664 3.37391663 -0.01548767 C7.05149744 -0.02937154 10.72889022 -0.02842564 14.40649414 -0.02612305 C16.98458423 -0.03001484 19.56267369 -0.0343505 22.14076233 -0.03910828 C27.55350079 -0.04657103 32.96616741 -0.04642151 38.37890625 -0.04101562 C44.57083839 -0.03502443 50.76254049 -0.04716419 56.95443338 -0.06858569 C62.9670449 -0.0885982 68.9795398 -0.09134201 74.99218941 -0.08785057 C77.5206207 -0.08835765 80.04905613 -0.09347736 82.57746696 -0.10366249 C120.78805991 -0.23852461 162.70460853 4.6191346 191.75415039 32.2746582 C213.55026992 55.52621894 220.86740412 84.02491232 219.93334961 115.07641602 C218.61031429 138.68917167 210.27894682 161.34134196 194.75415039 179.2746582 C194.33883057 179.80220703 193.92351074 180.32975586 193.49560547 180.87329102 C189.44719627 185.89446532 184.79490589 189.53530204 179.56665039 193.2746582 C178.72384521 193.8847876 177.88104004 194.49491699 177.01269531 195.12353516 C156.54310032 209.84755509 156.54310032 209.84755509 145.50805664 210.8449707 C144.61546143 210.92763184 143.72286621 211.01029297 142.80322266 211.09545898 C141.78893188 211.1841626 141.78893188 211.1841626 140.75415039 211.2746582 C149.63166977 224.03144663 158.59359203 236.71938476 167.75415039 249.2746582 C168.30538574 250.03069336 168.85662109 250.78672852 169.42456055 251.56567383 C176.7397243 261.58367138 184.17565444 271.50292934 191.71337891 281.35449219 C196.35335594 287.42137845 200.93878608 293.52650566 205.50415039 299.6496582 C210.86170853 306.8246853 216.36221702 313.86088221 221.98461914 320.8293457 C225.91574327 325.70530697 229.75895524 330.64514916 233.52758789 335.64770508 C234.35722234 336.74815969 235.19066959 337.84574851 236.02758789 338.94067383 C241.02707006 345.50817541 245.4623386 352.14908306 249.19165039 359.5246582 C249.50956543 360.14961182 249.82748047 360.77456543 250.1550293 361.41845703 C252.63306526 366.52848978 254.23899613 371.81035016 255.75415039 377.2746582 C221.79786055 380.55821542 221.79786055 380.55821542 207.69165039 380.7121582 C206.81565186 380.73407227 205.93965332 380.75598633 205.03710938 380.77856445 C195.44424975 380.74865395 186.64664968 376.92764979 179.75415039 370.2746582 C170.78873746 360.26831718 163.79006912 348.47608809 156.41430664 337.28637695 C152.73085647 331.70413024 148.9601081 326.1860142 145.1620636 320.68127441 C129.9436184 298.60833933 115.01385156 276.32369106 100.23596191 253.95376587 C99.26067527 252.47840279 98.28358978 251.00422701 97.30456543 249.53134155 C92.2979275 241.99299965 87.56335863 234.50720201 83.75415039 226.2746582 C83.15602539 225.1196582 82.55790039 223.9646582 81.94165039 222.7746582 C80.75415039 220.2746582 80.75415039 220.2746582 80.75415039 218.2746582 C66.89415039 218.2746582 53.03415039 218.2746582 38.75415039 218.2746582 C38.75415039 270.7446582 38.75415039 323.2146582 38.75415039 377.2746582 C19.28415039 377.2746582 -0.18584961 377.2746582 -20.24584961 377.2746582 C-24.79744771 365.13706327 -25.54507967 353.686386 -25.49981689 340.81987 C-25.50212783 339.42001729 -25.50530855 338.02016581 -25.50927138 336.6203168 C-25.51754076 332.81555749 -25.5135304 329.01089984 -25.50729895 325.2061404 C-25.50274313 321.08687809 -25.50977348 316.96763235 -25.51525879 312.84837341 C-25.52412007 304.79669337 -25.52224574 296.74505076 -25.51643351 288.69336929 C-25.51190569 282.14867815 -25.51130894 275.60399745 -25.51348114 269.05930519 C-25.51378761 268.12572846 -25.51409407 267.19215172 -25.51440983 266.23028478 C-25.51504931 264.33345184 -25.51569773 262.4366189 -25.51635501 260.53978596 C-25.52204832 242.78376304 -25.51551529 225.02776083 -25.50475428 207.27174131 C-25.49581232 192.04573386 -25.49737805 176.8197569 -25.5065918 161.59375 C-25.51729941 143.89089784 -25.52150682 126.18806376 -25.51536727 108.48520881 C-25.5147302 106.59711667 -25.51410145 104.70902453 -25.51348114 102.82093239 C-25.51301831 101.42762284 -25.51301831 101.42762284 -25.51254614 100.00616562 C-25.51082122 93.46895164 -25.51372976 86.93174917 -25.51844025 80.39453697 C-25.52405421 72.42887548 -25.52252146 64.46325339 -25.51187876 56.49759641 C-25.50663014 52.43570261 -25.50455161 48.37387448 -25.51117706 44.3119812 C-25.51715493 40.59082249 -25.51383124 36.86979008 -25.50322196 33.14864276 C-25.49994472 31.17163949 -25.50644224 29.19462739 -25.51333642 27.21763343 C-25.44128215 10.82323885 -25.44128215 10.82323885 -21.05834961 4.8371582 C-15.05444484 -0.63306614 -7.70688937 -0.01834974 0 0 Z M38.75415039 48.2746582 C38.75415039 89.1946582 38.75415039 130.1146582 38.75415039 172.2746582 C77.12118374 175.56869835 77.12118374 175.56869835 113.94165039 168.1496582 C115.68442261 167.54806885 115.68442261 167.54806885 117.46240234 166.93432617 C120.8998821 165.73297356 124.32725442 164.50581739 127.75415039 163.2746582 C128.72868164 162.9362793 129.70321289 162.59790039 130.70727539 162.24926758 C141.63948435 158.41518572 149.28624744 155.1210706 154.75415039 144.2746582 C155.23754883 143.3980957 155.72094727 142.5215332 156.21899414 141.6184082 C163.62642317 127.01825823 165.80985833 106.99929891 161.87524414 91.0402832 C160.72175957 87.61409141 159.39486257 84.49393438 157.75415039 81.2746582 C157.22305664 80.22149414 156.69196289 79.16833008 156.14477539 78.08325195 C154.48072927 75.03377293 152.69100964 72.15742545 150.75415039 69.2746582 C150.21661133 68.4496582 149.67907227 67.6246582 149.12524414 66.7746582 C139.934269 54.60227054 121.01150768 51.16101516 106.67755127 48.95507812 C95.91319113 47.49814573 85.26695929 46.98164646 74.41210938 47.06884766 C72.05661198 47.08723657 69.70150956 47.0893551 67.34594727 47.08911133 C65.79060545 47.09402592 64.2352662 47.09985398 62.67993164 47.10668945 C62.00448807 47.10780228 61.32904449 47.1089151 60.63313293 47.11006165 C53.2945162 47.17875833 46.11949052 47.78363553 38.75415039 48.2746582 Z " fill="#C29D5D" transform="translate(4770.245849609375,2556.725341796875)"/>
<path d="M0 0 C0.87543457 0.28327148 1.75086914 0.56654297 2.65283203 0.85839844 C21.05813411 6.89456382 39.10175668 14.83944797 55 26 C54.39332987 45.3687216 48.03926081 63.96447 39 81 C34.0059382 80.40100747 30.11404881 78.15121026 25.75390625 75.80859375 C24.10610198 74.94001666 22.45789307 74.07220688 20.80932617 73.20507812 C19.95196869 72.75205322 19.09461121 72.29902832 18.21127319 71.83227539 C-18.89843899 52.29126168 -60.23541452 38.74105004 -102.41162109 50.17333984 C-110.70314914 52.82143586 -118.40052938 56.80606256 -126 61 C-126.74491699 61.41008301 -127.48983398 61.82016602 -128.25732422 62.24267578 C-152.71901905 75.91293775 -165.71981368 98.67348821 -174 125 C-187.76366512 173.90582895 -184.99939538 232.07687427 -160 277 C-157.65106601 280.93317237 -154.96430149 284.50780921 -152 288 C-151.26910156 288.87914063 -150.53820313 289.75828125 -149.78515625 290.6640625 C-142.85938861 298.69084961 -135.54966602 304.14167712 -125.9375 308.5625 C-125.10822998 308.94744629 -124.27895996 309.33239258 -123.42456055 309.72900391 C-104.8729077 318.17890668 -85.61274317 322.17316004 -65.25 322.1875 C-64.35023438 322.19974609 -63.45046875 322.21199219 -62.5234375 322.22460938 C-49.86389561 322.25150642 -38.7559005 319.59909645 -26.9375 315.1875 C-25.76123047 314.76146484 -24.58496094 314.33542969 -23.37304688 313.89648438 C-15.82510109 311.13850087 -8.39038088 308.15475035 -1 305 C0.29678063 286.63241582 1.39959128 268.26374353 2.30224609 249.87255859 C2.34150711 249.09095367 2.38076813 248.30934875 2.42121887 247.50405884 C2.49389953 246.05622739 2.56464775 244.60829674 2.63285828 243.1602478 C2.90716167 237.73464269 3.45732019 232.42679809 4 227 C-24.71 227 -53.42 227 -83 227 C-84.12560627 217.99514983 -84.12560627 217.99514983 -84.14526367 214.86645508 C-84.15164352 214.16245071 -84.15802338 213.45844635 -84.16459656 212.73310852 C-84.16626579 211.63738777 -84.16626579 211.63738777 -84.16796875 210.51953125 C-84.17129715 209.74365158 -84.17462555 208.96777191 -84.17805481 208.16838074 C-84.18308001 206.5423542 -84.18546451 204.9163175 -84.18530273 203.2902832 C-84.18750347 200.80858559 -84.20574426 198.3273232 -84.22460938 195.84570312 C-84.22754144 194.25781401 -84.22952749 192.6699228 -84.23046875 191.08203125 C-84.23765427 190.34547806 -84.24483978 189.60892487 -84.25224304 188.85005188 C-84.23438797 184.81927634 -84.05250624 181.521421 -82 178 C-78.76299785 175.89952343 -76.12726234 175.75251417 -72.31793213 175.75949097 C-70.58057549 175.75536697 -70.58057549 175.75536697 -68.80812073 175.75115967 C-66.90811562 175.7619455 -66.90811562 175.7619455 -64.96972656 175.77294922 C-63.61940011 175.7735135 -62.26907304 175.77319644 -60.91874695 175.77206421 C-57.25582369 175.77149036 -53.59303141 175.78324989 -49.93013859 175.79721212 C-46.10111721 175.80971407 -42.27209284 175.81088956 -38.4430542 175.81326294 C-31.19350995 175.81947928 -23.94402601 175.83589219 -16.69450831 175.85596192 C-8.44065121 175.87831611 -0.18679123 175.88931314 8.0670886 175.89935279 C25.04476062 175.92025828 42.02237393 175.95543727 59 176 C59.69516491 179.19345955 60.14819812 182.23490016 60.27210999 185.49949646 C60.30714127 186.37174362 60.34217255 187.24399078 60.37826538 188.14266968 C60.41207306 189.08744171 60.44588074 190.03221375 60.48071289 191.00561523 C60.5198732 192.01154221 60.55903351 193.01746918 60.59938049 194.05387878 C60.72799419 197.38863909 60.85056762 200.7235886 60.97265625 204.05859375 C61.06071435 206.40097266 61.14896941 208.74334417 61.2374115 211.08570862 C61.42249481 216.01431678 61.60447218 220.94302807 61.78442383 225.87182617 C61.96721623 230.87102504 62.1543329 235.87002802 62.34594727 240.86889648 C64.16486181 288.33662255 64.16486181 288.33662255 64.24609375 306.84765625 C64.26024071 308.54866737 64.26024071 308.54866737 64.27467346 310.28404236 C64.24005109 319.92122774 63.10710896 328.68874944 58 337 C57.57460937 337.73089844 57.14921875 338.46179687 56.7109375 339.21484375 C49.16321536 350.53642696 34.82437861 354.65220877 22.62280273 359.13647461 C17.76316845 360.92282588 13.08543867 362.82794923 8.4375 365.125 C-3.10687325 370.59965123 -15.71090613 373.69955636 -28.1875 376.25 C-28.92105713 376.40098145 -29.65461426 376.55196289 -30.41040039 376.70751953 C-44.98361792 379.50333308 -59.44342591 380.37849423 -74.25 380.3125 C-75.53009949 380.30976578 -75.53009949 380.30976578 -76.83605957 380.30697632 C-89.74766659 380.26063269 -102.35246814 379.83076732 -115 377 C-115.81791016 376.81775879 -116.63582031 376.63551758 -117.47851562 376.44775391 C-156.90192266 367.36580275 -190.6149759 341.55733247 -212.51367188 307.65673828 C-235.06275629 271.29521669 -245.47964553 232.90850891 -245.3125 190.3125 C-245.31067719 189.34544128 -245.30885437 188.37838257 -245.30697632 187.38201904 C-245.26157738 173.06405259 -244.82086868 159.07957481 -242 145 C-241.82839355 144.10345703 -241.65678711 143.20691406 -241.47998047 142.28320312 C-234.22389431 105.11440434 -218.61139245 72.23564857 -193.0234375 44.24609375 C-191.42588072 42.47274404 -189.91616508 40.68316018 -188.4375 38.8125 C-185.24930525 35.13381375 -181.75247569 32.09199321 -178 29 C-177.46600586 28.55897949 -176.93201172 28.11795898 -176.38183594 27.66357422 C-174.57598032 26.18101373 -172.75870069 24.71365845 -170.9375 23.25 C-170.36008057 22.77796143 -169.78266113 22.30592285 -169.18774414 21.81958008 C-165.31963752 18.75173357 -161.60313173 16.87553133 -157 15 C-154.6251999 13.7792171 -152.28310987 12.50460226 -149.9362793 11.23095703 C-103.2608495 -14.00252647 -50.22788617 -16.56825937 0 0 Z " fill="#C29D5D" transform="translate(1958,2561)"/>
<path d="M0 0 C180.02325581 0 180.02325581 0 207 26 C208.34809235 27.15297372 209.70195439 28.29924826 211.0625 29.4375 C231.6326173 47.57059537 240.98606328 72.29807493 242.87109375 99.25 C242.93490234 100.61125 242.93490234 100.61125 243 102 C243.07927734 103.5778125 243.07927734 103.5778125 243.16015625 105.1875 C244.00869402 137.65329298 228.77222629 163.86887076 207.10083008 186.88842773 C195.95228989 198.4188399 181.18139115 204.44840973 166 209 C166 212.27561183 168.08716192 214.76881905 169.75 217.5 C170.15049561 218.1614502 170.55099121 218.82290039 170.96362305 219.50439453 C183.16251571 239.4527075 196.88247187 258.3896772 211.11328125 276.921875 C214.01886404 280.70701241 216.88665979 284.51727516 219.73022461 288.34912109 C224.68086719 295.01909389 229.8026462 301.51248415 235.07495117 307.9309082 C239.55657434 313.40399959 243.85175168 319.00380217 248.12255859 324.64208984 C252.35153531 330.20398915 256.73549193 335.62237999 261.17114258 341.02001953 C265.68498491 346.5428222 269.98292927 352.21156345 274.21899414 357.94946289 C276.93399762 361.62247728 276.93399762 361.62247728 280 365 C279.70741052 369.38884214 278.77331622 372.57772778 276 376 C273.18841142 376.8521784 270.81216513 377.37471735 267.9375 377.75 C267.22400391 377.86214844 266.51050781 377.97429688 265.77539062 378.08984375 C247.00242341 380.94185843 220.46197561 384.53665683 204 373 C188.48794378 360.34441281 178.51467527 343.22500128 168.77539062 326.06933594 C164.53349356 318.60402776 160.14048204 311.26386792 155.5625 304 C154.94511963 303.0198291 154.32773926 302.0396582 153.69165039 301.02978516 C152.4327954 299.03304822 151.17343381 297.03663057 149.91357422 295.04052734 C139.93291774 279.18200529 130.24212056 263.16665326 120.84619141 246.95629883 C112.58813732 230.26393997 112.58813732 230.26393997 98.32226562 219.90478516 C94.1243569 218.92178365 90.08026115 218.65663438 85.78125 218.5859375 C85.03790405 218.56657135 84.29455811 218.5472052 83.52868652 218.5272522 C81.18590277 218.4681181 78.84306808 218.42134004 76.5 218.375 C74.89841767 218.33675906 73.29685457 218.29770391 71.6953125 218.2578125 C67.79703363 218.16247248 63.89865878 218.07820206 60 218 C60.02061493 218.65393769 60.04122986 219.30787539 60.06246948 219.98162937 C60.56731383 236.00401144 61.06811935 252.02651412 61.56460571 268.04915714 C61.80481143 275.79805129 62.04630984 283.54690085 62.29101562 291.2956543 C62.50466937 298.0612362 62.71573061 304.82689356 62.92386818 311.59264749 C63.03383116 315.16433951 63.14496297 318.73598524 63.25921631 322.3075428 C63.50558855 330.02971744 63.73114831 337.75199505 63.91467285 345.47597122 C63.97135207 347.81683479 64.03340613 350.15757466 64.10095215 352.49814987 C64.18976971 355.72587369 64.25153675 358.95291455 64.3046875 362.18139648 C64.35002121 363.59892889 64.35002121 363.59892889 64.39627075 365.0450983 C64.40455902 365.90951259 64.41284729 366.77392687 64.42138672 367.66453552 C64.43676483 368.4104769 64.45214294 369.15641829 64.46798706 369.92496395 C64 372 64 372 60 376 C40.2 376 20.4 376 0 376 C0 251.92 0 127.84 0 0 Z M59 47 C59 87.92 59 128.84 59 171 C95.70459923 173.22452117 118.10285532 174.04946495 150.3125 160.5625 C151.39772949 160.10818604 152.48295898 159.65387207 153.60107422 159.18579102 C169.95898034 152.63350625 169.95898034 152.63350625 180 139 C184.27663185 126.8460882 185.30360939 115.78050965 185 103 C184.98324219 101.86046875 184.96648438 100.7209375 184.94921875 99.546875 C184.36913113 84.7629276 179.39313862 72.09740722 168.671875 61.75390625 C148.78933319 45.62221205 118.01067871 45.96176231 93.8125 45.875 C92.76320313 45.87024658 91.71390625 45.86549316 90.6328125 45.8605957 C80.04574129 45.88214659 69.6125926 46.49463845 59 47 Z " fill="#C39E5E" transform="translate(2087,2558)"/>
<path d="M0 0 C1.00828354 0.02361099 2.01656708 0.04722198 3.05540466 0.07154846 C6.2441357 0.14750782 9.43258111 0.23181945 12.62109375 0.31640625 C14.79621045 0.36969491 16.97134067 0.42243471 19.14648438 0.47460938 C24.45069367 0.60303003 29.75469449 0.7382902 35.05859375 0.87890625 C35.33796946 20.40153804 35.61529755 39.92419838 35.89106345 59.44688147 C35.949266 63.56700968 36.00752727 67.68713704 36.06592941 71.80726242 C37.04854314 141.13136088 37.04854314 141.13136088 37.37890625 172.1953125 C37.39000238 173.2295573 37.40109852 174.26380211 37.4125309 175.32938766 C37.51254159 184.67326646 37.60894396 194.01715699 37.69331741 203.3611908 C37.86597677 224.00228455 37.86597677 224.00228455 38.51171875 244.6328125 C38.54773697 245.47340714 38.58375519 246.31400177 38.62086487 247.18006897 C39.67338215 268.06695505 47.42426638 285.42976223 56.95996094 303.68359375 C57.8843214 305.53067136 58.69295295 307.43501391 59.47265625 309.34765625 C62.04931272 315.39864307 65.27829405 318.12175089 71.24609375 320.75390625 C97.21403734 331.2004285 126.45662337 334.27522077 152.75390625 323.34643555 C167.97723181 316.63754194 179.50498898 306.35249052 186.05859375 290.87890625 C187.16491496 287.83076789 188.08594988 284.75822164 188.93359375 281.62890625 C189.22024902 280.57823975 189.22024902 280.57823975 189.51269531 279.50634766 C192.86654206 265.75922808 193.35679994 251.38455094 193.4375 237.30078125 C193.45354081 235.69903803 193.47037001 234.09730256 193.48789978 232.49557495 C193.53338457 228.12600519 193.56746675 223.75641204 193.59957886 219.38672638 C193.63631739 214.67751126 193.68423968 209.96840705 193.73046875 205.25927734 C193.85625668 192.13261403 193.95876531 179.00578906 194.05859375 165.87890625 C194.07307682 163.97633308 194.07307682 163.97633308 194.08785248 162.0353241 C194.14472903 154.54818388 194.20108479 147.06103986 194.25715369 139.57389355 C194.29408735 134.64646826 194.33147463 129.71904654 194.36903381 124.79162598 C194.39049919 121.96948262 194.41192759 119.14733899 194.43334961 116.32519531 C194.4413189 115.27759726 194.4413189 115.27759726 194.44944918 114.2088356 C194.50748072 106.56563635 194.56339704 98.92243173 194.61331177 91.2791748 C194.71858768 75.18589203 194.84327794 59.09307505 195.02435303 43.0004425 C195.05693215 40.03038531 195.08562678 37.06031193 195.11376953 34.09020996 C195.1555748 29.94033661 195.21763676 25.79135852 195.30030823 21.64210129 C195.32618104 20.21726178 195.34567071 18.79228852 195.35801697 17.36726761 C195.37577505 15.48074553 195.42043737 13.59453207 195.46679688 11.70849609 C195.49344421 10.1803981 195.49344421 10.1803981 195.52062988 8.62142944 C196.2229005 5.04127549 197.40697491 3.36822357 200.05859375 0.87890625 C202.66558838 0.27763367 202.66558838 0.27763367 205.65332031 0.3112793 C206.7741803 0.31165695 207.89504028 0.31203461 209.04986572 0.31242371 C210.25415222 0.33823013 211.45843872 0.36403656 212.69921875 0.390625 C213.93653748 0.39769974 215.1738562 0.40477448 216.44866943 0.4120636 C219.73057101 0.43530451 223.01123806 0.4801867 226.29272461 0.5355835 C229.64425276 0.58682855 232.99583397 0.609162 236.34765625 0.63476562 C242.91845138 0.6899089 249.48842161 0.7735936 256.05859375 0.87890625 C256.54160578 2.58615633 257.01981333 4.29476599 257.49609375 6.00390625 C257.89634766 7.43089844 257.89634766 7.43089844 258.3046875 8.88671875 C260.0959179 15.99595444 260.20209206 22.71723776 260.18701172 30.01611328 C260.18855444 31.85588808 260.18855444 31.85588808 260.19012833 33.73283005 C260.19104527 37.11385851 260.18699769 40.49480155 260.17990351 43.87581778 C260.17575071 46.02754472 260.1733206 48.17926749 260.17135239 50.33099747 C260.13712675 84.05849316 259.74519749 117.7812676 259.28091407 151.50518441 C259.19184847 158.02712554 259.11231652 164.5491601 259.03460991 171.07124507 C258.95729659 177.52566155 258.87347832 183.97997352 258.78483665 190.43424428 C258.73295637 194.21850782 258.68331227 198.00275876 258.64044571 201.78713608 C258.05486073 252.73299021 254.92432535 304.62297348 220.05859375 344.87890625 C219.32769531 345.74257812 218.59679688 346.60625 217.84375 347.49609375 C197.79989681 370.58935367 164.62774717 380.10011576 135.06640625 382.52734375 C92.17496379 385.40052523 52.35196942 378.74055138 19.05859375 349.87890625 C18.43855469 349.40324219 17.81851562 348.92757812 17.1796875 348.4375 C2.69583714 337.17975088 -7.08592747 317.84599682 -12.94140625 300.87890625 C-13.16280273 300.25387207 -13.38419922 299.62883789 -13.61230469 298.98486328 C-22.60905464 273.08452806 -23.03709635 245.36658663 -23.44140625 218.25390625 C-23.46097382 217.00893372 -23.48054138 215.76396118 -23.5007019 214.48126221 C-24.39080503 157.56673542 -25.0011279 100.63912892 -25.11764526 43.71759033 C-25.12421458 40.51374421 -25.13504033 37.30995929 -25.14968872 34.10614014 C-25.16607792 30.41472879 -25.17252953 26.72344 -25.17066574 23.03199387 C-25.17183494 21.07108897 -25.18250497 19.11019686 -25.19351196 17.14932251 C-25.19048065 15.99016327 -25.18744934 14.83100403 -25.18432617 13.63671875 C-25.18575119 12.63785645 -25.18717621 11.63899414 -25.18864441 10.60986328 C-24.91942684 7.63612486 -24.31254793 5.52820848 -22.94140625 2.87890625 C-16.44055044 -1.45499762 -7.54636873 -0.21257432 0 0 Z " fill="#C29D5D" transform="translate(1394.94140625,2557.12109375)"/>
<path d="M0 0 C1.28488815 -0.0049926 1.28488815 -0.0049926 2.59573364 -0.01008606 C4.39926623 -0.01512489 6.20280804 -0.01749533 8.00634766 -0.01733398 C10.7426716 -0.01951916 13.47859101 -0.03770377 16.21484375 -0.05664062 C17.97656114 -0.05957559 19.73828042 -0.06155969 21.5 -0.0625 C22.30654022 -0.06968552 23.11308044 -0.07687103 23.94406128 -0.08427429 C37.02162766 -0.03252907 37.02162766 -0.03252907 41.46162128 3.38220882 C47.3252013 10.74993394 44.09590611 31.3406419 44.14819336 40.45556641 C44.16438721 42.69264015 44.18100552 44.92971086 44.19801331 47.16677856 C44.23373312 51.96343269 44.26678058 56.760095 44.29780388 61.55678177 C44.347292 69.15780457 44.40471515 76.75875497 44.46351624 84.35971069 C44.54548182 95.03031928 44.6256483 105.70093829 44.70288086 116.37158203 C44.70777197 117.04708801 44.71266307 117.72259399 44.7177024 118.41856985 C44.78689368 127.99258267 44.85327318 137.5666129 44.91847027 147.14065365 C44.92305819 147.81434049 44.9276461 148.48802732 44.93237305 149.18212891 C44.93695351 149.85497982 44.94153397 150.52783074 44.94625323 151.22107108 C45.02316181 162.49124223 45.1074081 173.76134542 45.19723994 185.03142202 C45.25693568 192.57027685 45.30842703 200.10912708 45.35363185 207.64808202 C45.38385608 212.36024345 45.42192341 217.07231856 45.46208763 221.78440475 C45.47901729 223.95013925 45.49283659 226.11590094 45.50310898 228.28167725 C45.62678603 253.51693773 48.33644566 274.66036217 58.71887207 297.81234741 C59.3218071 299.16021362 59.91728558 300.51144345 60.50476074 301.86611938 C64.14191555 310.18810172 67.45932429 316.11396066 75.8828125 320.16796875 C77.48576172 321.03808594 77.48576172 321.03808594 79.12109375 321.92578125 C103.75999276 332.88336023 133.25857625 333.87880043 158.6328125 324.91796875 C169.66822707 320.37397452 180.95532103 313.75455819 186.59765625 302.85546875 C188.20252597 299.00051451 189.57778921 295.13108808 190.8828125 291.16796875 C191.10420898 290.53955078 191.32560547 289.91113281 191.55371094 289.26367188 C194.83930005 279.91349317 196.65547973 270.45785133 198.1328125 260.66796875 C198.29604004 259.5893457 198.45926758 258.51072266 198.62744141 257.39941406 C201.22195462 238.93664803 201.12602985 220.29492966 201.35520887 201.68939877 C201.4023652 197.92914598 201.45398608 194.16895403 201.5050354 190.40875244 C201.60240324 183.18605092 201.69571866 175.96330285 201.78755176 168.74052906 C201.89307776 160.45426507 202.00297244 152.16806067 202.11298585 143.88185525 C202.3769912 123.97732016 202.63186072 104.07267229 202.8828125 84.16796875 C202.90774529 82.19097488 202.90774529 82.19097488 202.93318176 80.17404175 C203.26484668 53.83885437 203.58264709 27.50353409 203.8828125 1.16796875 C223.6828125 1.16796875 243.4828125 1.16796875 263.8828125 1.16796875 C263.92477762 39.60202651 263.81041311 78.02739394 263.49397218 116.45999134 C263.45568049 121.1372938 263.41990761 125.81461083 263.38549805 130.49194336 C263.25844443 147.70928615 263.10384701 164.92620085 262.92350006 182.14307404 C262.8812813 186.24799891 262.84474717 190.35296745 262.80828857 194.45794678 C262.75285952 200.64921093 262.68603151 206.84025711 262.60728186 213.03126949 C262.56642845 216.25687493 262.53087597 219.48236449 262.50439644 222.70812416 C262.1050263 269.77154503 255.1188558 316.29812607 220.35546875 350.77734375 C196.56346945 373.24405927 164.42647005 382.17568266 132.33203125 382.40625 C131.23800491 382.41432175 130.14397858 382.42239349 129.01679993 382.43070984 C126.70644683 382.4444812 124.39607399 382.4552341 122.08569336 382.46313477 C119.7617379 382.47459395 117.43780747 382.49494805 115.11401367 382.5246582 C77.80987298 383.00015782 47.30290915 372.98588947 19.8828125 347.16796875 C18.83287109 346.23210938 18.83287109 346.23210938 17.76171875 345.27734375 C11.79176404 339.73797057 7.82429631 333.23905644 3.8828125 326.16796875 C3.23441406 325.03101562 2.58601563 323.8940625 1.91796875 322.72265625 C-8.08874347 304.42948405 -14.16401078 283.87323317 -16.1171875 263.16796875 C-16.25713135 261.81517822 -16.25713135 261.81517822 -16.39990234 260.43505859 C-17.55271958 249.16757355 -18.24354514 237.89163371 -18.63842773 226.57348633 C-18.68045287 225.37495687 -18.72247801 224.1764274 -18.76577663 222.94157887 C-19.25400853 208.15705301 -19.43994972 193.36857729 -19.62243962 178.57771277 C-19.67384091 174.45582029 -19.72848965 170.33397037 -19.78257751 166.21211243 C-19.87303584 159.27953817 -19.96087108 152.34693447 -20.04711914 145.41430664 C-20.13430332 138.40905712 -20.22444342 131.40385392 -20.31762695 124.39868164 C-21.19663442 58.24201769 -21.19663442 58.24201769 -21.28915215 31.14432716 C-21.29678668 29.16213277 -21.30760481 27.17994757 -21.32191658 25.19779015 C-21.33978521 22.55470441 -21.34475346 19.91193698 -21.34545898 17.26879883 C-21.35279745 16.52186327 -21.36013592 15.77492771 -21.36769676 15.00535774 C-21.34998997 10.69174578 -20.88783885 7.12012594 -19.1171875 3.16796875 C-13.47660611 -0.59241884 -6.58052237 0.00903413 0 0 Z " fill="#C29D5D" transform="translate(3241.1171875,2556.83203125)"/>
<path d="M0 0 C1.07345673 0.02361099 2.14691345 0.04722198 3.25289917 0.07154846 C6.64532132 0.1474636 10.03747228 0.23179372 13.4296875 0.31640625 C15.74477887 0.36969936 18.05988305 0.42243911 20.375 0.47460938 C26.018393 0.60297968 31.66158832 0.73823939 37.3046875 0.87890625 C62.35871278 61.22315106 84.03544163 122.95006191 106.01171875 184.46337891 C110.62781713 197.3824116 115.25989851 210.29573337 119.89282227 223.20874023 C120.68767296 225.42431275 121.48251334 227.63988896 122.27734375 229.85546875 C122.87767174 231.52872978 122.87767174 231.52872978 123.49012756 233.23579407 C125.70430677 239.40934513 127.9149194 245.58415273 130.12060547 251.76074219 C144.39032694 291.80153875 144.39032694 291.80153875 159.2421875 331.62890625 C159.70641617 332.84469864 159.70641617 332.84469864 160.18002319 334.08505249 C161.06102901 336.38729482 161.94547005 338.68817294 162.83203125 340.98828125 C163.10818771 341.70603226 163.38434418 342.42378326 163.66886902 343.1632843 C165.2460582 347.23489224 166.87762924 351.27918258 168.55517578 355.31054688 C168.93025772 356.22048401 169.30533966 357.13042114 169.69178772 358.06793213 C170.42070702 359.8312175 171.15894306 361.59068844 171.90769958 363.34564209 C172.23536819 364.14069153 172.5630368 364.93574097 172.90063477 365.75488281 C173.19607681 366.45566956 173.49151886 367.1564563 173.7959137 367.878479 C174.42430014 370.34920637 174.32028799 371.53949013 173.3046875 373.87890625 C171.14504492 376.04407197 169.81254206 376.80651962 166.77362061 377.2396698 C165.82319885 377.23300797 164.8727771 377.22634613 163.89355469 377.21948242 C162.27232697 377.21914253 162.27232697 377.21914253 160.61834717 377.21879578 C159.45780823 377.20331192 158.29726929 377.18782806 157.1015625 377.171875 C155.90863586 377.16763016 154.71570923 377.16338531 153.4866333 377.15901184 C149.67575531 377.14221648 145.86540572 377.10456143 142.0546875 377.06640625 C139.4713618 377.05136058 136.88802782 377.03767197 134.3046875 377.02539062 C127.97117382 376.99231006 121.63796841 376.94210149 115.3046875 376.87890625 C102.68661526 351.9056583 93.68430922 325.99243734 86.3046875 299.06640625 C86.10260681 298.33009979 85.90052612 297.59379333 85.69232178 296.83517456 C85.12023882 294.7404803 84.55469395 292.64415904 83.9921875 290.546875 C83.66605469 289.33281982 83.33992188 288.11876465 83.00390625 286.86791992 C82.3046875 283.87890625 82.3046875 283.87890625 82.3046875 280.87890625 C81.3610585 280.94275513 80.4174295 281.006604 79.44520569 281.0723877 C66.5925931 281.90438205 53.73693333 282.26213684 40.86328125 282.59765625 C38.52367903 282.66080765 36.18408463 282.72424942 33.84449768 282.78796387 C27.72026326 282.95420649 21.59595592 283.11756343 15.47161865 283.27996826 C5.69948122 283.53921306 -4.07257733 283.80129144 -13.84455681 284.06642151 C-17.21164469 284.15712374 -20.57878555 284.24559909 -23.94593811 284.3338623 C-38.20223657 284.71453077 -52.44813845 285.24278363 -66.6953125 285.87890625 C-67.07892441 286.97960953 -67.46253632 288.08031281 -67.85777283 289.21437073 C-71.77755007 300.46015508 -75.7164798 311.69916407 -79.66259766 322.93572998 C-80.69338295 325.87340714 -81.72191333 328.81186573 -82.75 331.75048828 C-84.42132948 336.52530196 -86.10157908 341.29689714 -87.78781128 346.06646729 C-88.42976162 347.88638692 -89.06890455 349.70729949 -89.70510864 351.52923584 C-90.6017438 354.09517914 -91.50866196 356.65727433 -92.41796875 359.21875 C-92.67586182 359.96411514 -92.93375488 360.70948029 -93.19946289 361.47743225 C-95.21995642 367.11761793 -97.69162701 371.47227237 -100.6953125 376.87890625 C-118.8453125 376.87890625 -136.9953125 376.87890625 -155.6953125 376.87890625 C-159.28542158 369.69868809 -159.76279613 365.67483442 -157.61987305 358.0546875 C-157.12273507 356.76087385 -156.60927741 355.47324533 -156.08203125 354.19140625 C-155.8012674 353.4731517 -155.52050354 352.75489716 -155.23123169 352.01487732 C-154.29558102 349.63050838 -153.33897007 347.25511731 -152.3828125 344.87890625 C-151.70435061 343.15827243 -151.02755526 341.43698068 -150.35229492 339.71508789 C-148.90192744 336.02216082 -147.44374735 332.33246179 -145.97949219 328.64501953 C-142.10836923 318.88729699 -138.30762174 309.10207137 -134.5078125 299.31640625 C-133.91286987 297.78542297 -133.91286987 297.78542297 -133.3059082 296.22351074 C-116.5674775 253.11523582 -100.91629101 209.60085764 -85.28369141 166.08251953 C-82.89718264 159.43912068 -80.50623424 152.79732999 -78.11328125 146.15625 C-71.44287182 127.64212269 -64.78226327 109.12449025 -58.13129044 90.60337257 C-53.94623956 78.94921777 -49.75817444 67.29615021 -45.56661987 55.64433289 C-43.24519288 49.19076794 -40.92631183 42.73630807 -38.61206055 36.28016663 C-37.4926274 33.16026009 -36.36930815 30.04176732 -35.24432373 26.92385864 C-34.76394646 25.59007227 -34.28522917 24.25568652 -33.80841064 22.92062378 C-27.13119879 4.2313522 -27.13119879 4.2313522 -21.6953125 0.87890625 C-14.72085942 -0.78178305 -7.1143385 -0.1885279 0 0 Z M3.3046875 72.87890625 C-5.34525956 96.9966474 -13.91370062 121.14185785 -22.40249634 145.31680298 C-28.56548333 162.8654808 -34.78161323 180.39425821 -41.06445312 197.90039062 C-41.35682861 198.71601974 -41.6492041 199.53164886 -41.95043945 200.37199402 C-42.48386066 201.85972089 -43.01811023 203.34715121 -43.5534668 204.83418274 C-47.14689635 214.85685062 -49.6953125 223.05188117 -49.6953125 233.87890625 C-12.0753125 233.87890625 25.5446875 233.87890625 64.3046875 233.87890625 C62.7075084 226.5666287 62.7075084 226.5666287 60.64746094 219.47485352 C60.33191757 218.5084343 60.01637421 217.54201508 59.69126892 216.54631042 C59.3522908 215.52298111 59.01331268 214.49965179 58.6640625 213.4453125 C58.3051442 212.35056107 57.94622589 211.25580963 57.57643127 210.12788391 C56.40677994 206.56430716 55.23088055 203.00282865 54.0546875 199.44140625 C53.24085217 196.96705085 52.42729682 194.49260335 51.61401367 192.01806641 C45.34489227 172.9609058 39.04070199 153.91463457 32.64982605 134.89790344 C31.2696254 130.78719932 29.90978548 126.67093064 28.57446289 122.54541016 C25.2319631 112.26729235 21.62894305 102.3370692 17.1171875 92.50390625 C16.35631836 90.80234375 16.35631836 90.80234375 15.58007812 89.06640625 C13.06723818 83.49969986 10.46203101 78.10849192 7.3046875 72.87890625 C5.9846875 72.87890625 4.6646875 72.87890625 3.3046875 72.87890625 Z " fill="#C29D5E" transform="translate(2542.6953125,2557.12109375)"/>
<path d="M0 0 C1.6718564 2.08596464 1.73396056 3.15108811 1.75372314 5.80067444 C1.7727494 7.03743423 1.7727494 7.03743423 1.79216003 8.29917908 C1.7892244 9.18670868 1.78628876 10.07423828 1.78326416 10.98866272 C1.78850601 11.9047934 1.79374786 12.82092407 1.79914856 13.76481628 C1.80557262 15.70319099 1.8042268 17.64160465 1.79571533 19.57997131 C1.78722159 22.54113079 1.81593455 25.50035096 1.84771729 28.46131897 C1.84932983 30.34543298 1.84875075 32.22955039 1.84576416 34.11366272 C1.85699814 34.99714386 1.86823212 35.880625 1.87980652 36.7908783 C1.87042557 37.62168915 1.86104462 38.4525 1.85137939 39.30848694 C1.85121323 40.03446075 1.85104706 40.76043457 1.85087585 41.50840759 C1.10798735 44.73304171 -0.33367664 46.34235946 -2.65032959 48.68397522 C-5.62568283 49.29921436 -5.62568283 49.29921436 -9.16760254 49.2852478 C-10.14665633 49.29165599 -10.14665633 49.29165599 -11.14548898 49.29819363 C-13.33107055 49.30642524 -15.51472982 49.27894068 -17.70013428 49.25160217 C-19.26720637 49.25019172 -20.83428176 49.25098364 -22.40135193 49.2538147 C-26.65540075 49.25525037 -30.90874588 49.2258366 -35.16263103 49.19094491 C-39.60822172 49.15970638 -44.05382821 49.15675266 -48.49951172 49.15081787 C-56.91790967 49.13527203 -65.33598329 49.09423364 -73.75423837 49.04407042 C-85.12986821 48.97775484 -96.50558664 48.95074841 -107.88136101 48.92155933 C-125.80459351 48.87453218 -143.72714157 48.77492509 -161.65032959 48.68397522 C-161.65032959 82.67397522 -161.65032959 116.66397522 -161.65032959 151.68397522 C-114.79032959 151.68397522 -67.93032959 151.68397522 -19.65032959 151.68397522 C-19.65032959 168.51397522 -19.65032959 185.34397522 -19.65032959 202.68397522 C-66.51032959 202.68397522 -113.37032959 202.68397522 -161.65032959 202.68397522 C-161.65032959 242.28397522 -161.65032959 281.88397522 -161.65032959 322.68397522 C-157.36032959 322.35397522 -153.07032959 322.02397522 -148.65032959 321.68397522 C-144.66418076 321.52551811 -140.68573627 321.39048354 -136.69842529 321.2950592 C-135.021856 321.2509491 -135.021856 321.2509491 -133.31141663 321.20594788 C-129.64972651 321.11057369 -125.9879357 321.02010969 -122.32611084 320.93006897 C-119.73570838 320.86440724 -117.1453103 320.79857241 -114.55491638 320.73257446 C-109.12591794 320.59506896 -103.69686622 320.46002106 -98.26776123 320.32679749 C-92.76863962 320.19180826 -87.2696265 320.0531467 -81.77069092 319.91078186 C-52.72415936 319.15933612 -23.70814995 318.48571658 5.34967041 318.68397522 C5.34967041 336.83397522 5.34967041 354.98397522 5.34967041 373.68397522 C-69.23032959 373.68397522 -143.81032959 373.68397522 -220.65032959 373.68397522 C-220.65032959 249.60397522 -220.65032959 125.52397522 -220.65032959 -2.31602478 C-4.98474276 -3.97499083 -4.98474276 -3.97499083 0 0 Z " fill="#C29D5D" transform="translate(4678.650329589844,2560.3160247802734)"/>
<path d="M0 0 C0.37118651 20.80019223 -2.25220486 41.37474858 -12 60 C-17.61361903 58.28472752 -22.98398569 56.20756622 -28.359375 53.85546875 C-29.02676697 53.56349106 -29.69415894 53.27151337 -30.3817749 52.97068787 C-31.78175024 52.3578154 -33.18171335 51.74491501 -34.58166504 51.13198853 C-64.22096599 38.22163097 -98.24569768 27.07641812 -130.1953125 38.80859375 C-142.64568051 44.0973991 -156.29923795 52.2136041 -161.94140625 65.16015625 C-164.88873956 76.84643587 -165.08474384 93.4178368 -159 104 C-152.96848016 113.13650342 -144.01880029 117.83483642 -134 121.5 C-132.89333984 121.91596436 -131.78667969 122.33192871 -130.64648438 122.76049805 C-119.4701985 126.9183964 -108.19246122 130.79349342 -96.9284668 134.70562744 C-85.45283867 138.6946114 -74.01057897 142.75616403 -62.64916992 147.06112671 C-61.25068155 147.59072296 -59.85115304 148.11758336 -58.45043945 148.64126587 C-26.35336688 160.66781147 -1.87126698 178.02597005 12.94091797 210.03320312 C23.09371278 235.64862778 20.25644196 268.71849026 9.625 293.625 C4.83144244 304.13515486 -1.56252853 313.21152715 -9 322 C-9.68835937 322.82371094 -10.37671875 323.64742187 -11.0859375 324.49609375 C-29.15561261 345.40342542 -58.08939187 362.84078266 -86.06542969 365.17211914 C-133.92138248 368.33292246 -179.81981025 364.2765466 -222 340 C-222.72300293 339.60022949 -223.44600586 339.20045898 -224.19091797 338.78857422 C-228.03873984 336.62088169 -231.29114342 334.52034595 -234 331 C-234.91285794 327.14888056 -234.32648643 323.95245233 -233.45458984 320.12792969 C-232.93415787 317.69179377 -232.56732198 315.25392972 -232.20703125 312.7890625 C-230.69705416 302.78600019 -228.66828205 292.99270919 -225.9375 283.25 C-225.69233643 282.363125 -225.44717285 281.47625 -225.19458008 280.5625 C-224.95376709 279.74265625 -224.7129541 278.9228125 -224.46484375 278.078125 C-224.254646 277.36043945 -224.04444824 276.64275391 -223.82788086 275.90332031 C-222.89168743 273.7509865 -221.74645575 272.54392864 -220 271 C-219.37359619 271.36125977 -218.74719238 271.72251953 -218.10180664 272.09472656 C-190.78181431 287.78544687 -162.61284069 303.38149934 -131 308 C-129.71222656 308.19335938 -129.71222656 308.19335938 -128.3984375 308.390625 C-125.92726915 308.69650252 -123.48706638 308.8775027 -121 309 C-119.93007813 309.05285156 -118.86015625 309.10570313 -117.7578125 309.16015625 C-95.34536596 309.71444256 -73.51489518 305.04380762 -56.8125 289.1875 C-45.82648048 277.54494545 -43.79682524 265.61700511 -43.625 250 C-43.61098145 249.11602539 -43.59696289 248.23205078 -43.58251953 247.32128906 C-43.65278739 237.83332576 -46.9529038 232.34159535 -53.453125 225.46875 C-69.69793147 209.72225047 -92.02267444 202.1182547 -113 195 C-189.77773342 168.65726027 -189.77773342 168.65726027 -213 137 C-213.47179688 136.401875 -213.94359375 135.80375 -214.4296875 135.1875 C-223.83038621 122.10826702 -225.39005451 102.21547636 -225.3125 86.75 C-225.30686035 85.56414307 -225.3012207 84.37828613 -225.29541016 83.15649414 C-224.93388715 56.95323485 -216.77005974 34.34399381 -198.47827148 15.58056641 C-196.93807995 13.93379515 -195.52098869 12.2177745 -194.09375 10.47265625 C-190.97779715 6.80066306 -187.46837885 4.03934583 -183.5625 1.25 C-182.93279297 0.78207031 -182.30308594 0.31414063 -181.65429688 -0.16796875 C-177.61379331 -3.09972159 -173.66472441 -5.14875287 -169 -7 C-167.82824219 -7.54398438 -166.65648438 -8.08796875 -165.44921875 -8.6484375 C-113.96570803 -32.49429649 -49.66672671 -24.75811074 0 0 Z " fill="#C29D5D" transform="translate(5292,2574)"/>
<path d="M0 0 C1.81257824 -0.0084139 1.81257824 -0.0084139 3.66177421 -0.01699778 C7.00090795 -0.02847746 10.33913026 -0.02218798 13.67819573 -0.00823798 C17.32991759 0.00254644 20.98157465 -0.01005443 24.63328972 -0.01958537 C31.05290931 -0.03313736 37.47239301 -0.03184742 43.89201552 -0.02085119 C53.50239249 -0.00446389 63.11265946 -0.01118956 72.72303895 -0.02238176 C89.1026139 -0.04077912 105.48213917 -0.04018303 121.8617186 -0.02925825 C138.46120025 -0.01825422 155.06064921 -0.01593107 171.66013283 -0.02420759 C172.70847009 -0.02472428 173.75680736 -0.02524097 174.83691242 -0.02577332 C179.10660567 -0.0279064 183.37629889 -0.03010123 187.64599207 -0.03237442 C227.41837268 -0.05353447 267.19073136 -0.0549654 306.96311516 -0.04378462 C308.14175796 -0.04345344 309.32040076 -0.04312225 310.53476001 -0.04278104 C311.71528475 -0.04244932 312.8958095 -0.0421176 314.11210772 -0.04177583 C350.06035446 -0.03168787 386.00859213 -0.02907531 421.95683998 -0.03386641 C424.36299676 -0.03417632 426.76915354 -0.03448495 429.17531032 -0.03479229 C438.84436027 -0.03603412 448.51341022 -0.03730879 458.18246016 -0.03863134 C485.21227483 -0.04229958 512.24208952 -0.04458183 539.27190441 -0.04577589 C540.50283042 -0.04583047 541.73375643 -0.04588506 543.00198324 -0.04594129 C582.23121832 -0.04757868 621.46045024 -0.04306943 660.68968433 -0.03437757 C661.96226195 -0.03409658 663.23483957 -0.03381558 664.54598014 -0.03352607 C685.21254002 -0.02894614 705.87909982 -0.02406835 726.54565962 -0.01916538 C808.51699833 0.00026095 890.48831091 -0.00064183 972.4596495 -0.02008772 C993.11690942 -0.02497237 1013.77416934 -0.02981653 1034.43142933 -0.03437757 C1035.70332445 -0.03465937 1036.97521958 -0.03494116 1038.28565698 -0.03523149 C1077.47445801 -0.04385447 1116.66325687 -0.04751366 1155.85205883 -0.04577589 C1157.69707617 -0.04569438 1157.69707617 -0.04569438 1159.57936659 -0.04561123 C1186.57840736 -0.04436139 1213.5774479 -0.04182699 1240.57648845 -0.03813388 C1250.23664052 -0.03681728 1259.8967926 -0.03556496 1269.55694468 -0.03433103 C1271.96019795 -0.03402148 1274.36345122 -0.03370656 1276.76670448 -0.03338625 C1312.70729165 -0.02860926 1348.64786862 -0.03268272 1384.58845452 -0.04278104 C1385.76718011 -0.04311222 1386.94590571 -0.0434434 1388.16035026 -0.04378462 C1389.33690696 -0.04411535 1390.51346366 -0.04444608 1391.72567359 -0.04478683 C1431.38088214 -0.05581198 1471.03606438 -0.051777 1510.69126917 -0.03066164 C1514.9469922 -0.02845216 1519.20271525 -0.02630535 1523.45843834 -0.02420759 C1525.02510818 -0.02342635 1525.02510818 -0.02342635 1526.62342792 -0.02262933 C1543.18071742 -0.01473089 1559.73797426 -0.02024215 1576.29526082 -0.03128362 C1592.5645119 -0.0418487 1608.83370775 -0.03817986 1625.1029518 -0.01922726 C1634.64821317 -0.00853258 1644.19332329 -0.00881051 1653.73857751 -0.02515365 C1660.073384 -0.03491012 1666.40807242 -0.03023077 1672.74286459 -0.01368624 C1676.33682116 -0.00470634 1679.93047599 -0.00195314 1683.52441932 -0.01695231 C1687.38727556 -0.03293479 1691.24966386 -0.01795203 1695.11251926 0 C1696.21741964 -0.00956297 1697.32232001 -0.01912594 1698.46070221 -0.02897869 C1705.82947066 0.0409008 1711.74155352 1.56427227 1718.49358505 4.50139666 C1718.20595417 6.48115387 1717.91324039 8.46017273 1717.61858505 10.43889666 C1717.45616318 11.54104509 1717.2937413 12.64319353 1717.12639755 13.77874041 C1716.40062879 18.04823193 1715.43305419 22.27378552 1714.49358505 26.50139666 C1141.94358505 26.50139666 569.39358505 26.50139666 -20.50641495 26.50139666 C-24.50641495 8.50139666 -24.50641495 8.50139666 -24.50641495 4.50139666 C-16.15260414 1.22392447 -8.94369109 -0.07757595 0 0 Z " fill="#B08F55" transform="translate(2482.506414949894,3019.4986033439636)"/>
<path d="M0 0 C3.21777244 1.29765582 6.42187281 2.62378601 9.62158203 3.96533203 C10.63333496 4.38782227 11.64508789 4.8103125 12.6875 5.24560547 C28.71128132 11.998725 44.35126463 19.55737123 59.97167969 27.18457031 C92.25857159 42.94685231 124.69616186 58.38682814 157.44326782 73.17024231 C165.34864372 76.74102461 173.23454679 80.35427176 181.12158203 83.96533203 C189.67399948 87.87973992 198.22770578 91.79110846 206.79345703 95.67626953 C207.46001312 95.97861008 208.12656921 96.28095062 208.81332397 96.592453 C210.15905637 97.20282257 211.50479002 97.81318939 212.8505249 98.42355347 C225.58839835 104.20162335 238.30022378 110.03410235 250.99658203 115.90283203 C268.48805566 123.9879127 286.00196784 132.02251231 303.53607178 140.01470947 C305.59153463 140.95163575 307.64684827 141.88888876 309.70214844 142.82617188 C325.05770258 149.82737168 340.43243925 156.78441733 355.82769775 163.69787598 C373.55250004 171.65806814 391.22440097 179.72731187 408.87127686 187.8585968 C416.98900405 191.59781434 425.11724887 195.31393098 433.24658203 199.02783203 C434.70191063 199.69293861 436.1572329 200.35805904 437.61254883 201.02319336 C444.08096926 203.9791381 450.55023405 206.93322016 457.02108765 209.88383484 C475.93894936 218.51079468 494.82087795 227.21254645 513.68145752 235.96401978 C514.54083923 236.36277313 515.40022095 236.76152649 516.28564453 237.17236328 C517.5749588 237.77061417 517.5749588 237.77061417 518.89031982 238.38095093 C528.00360812 242.60842375 537.1244004 246.81959115 546.24658203 251.02783203 C547.04704956 251.3971283 547.84751709 251.76642456 548.67224121 252.14691162 C552.70767514 254.00861483 556.74321292 255.87009276 560.77880859 257.73144531 C568.08052041 261.09938337 575.38125262 264.46944396 582.68206787 267.83932495 C586.74519999 269.71474572 590.80839412 271.59003214 594.87158203 273.46533203 C596.49658233 274.21533139 598.12158233 274.96533139 599.74658203 275.71533203 C600.55095703 276.08658203 601.35533203 276.45783203 602.18408203 276.84033203 C625.34033203 287.52783203 625.34033203 287.52783203 648.49658203 298.21533203 C649.30089661 298.58655182 650.10521118 298.95777161 650.93389893 299.34024048 C652.55951642 300.09053017 654.18512677 300.84083536 655.81072998 301.59115601 C659.86372391 303.46185052 663.91684019 305.33227899 667.97021484 307.20214844 C676.24740785 311.02087757 684.5223024 314.84447766 692.79345703 318.67626953 C701.67620385 322.79068049 710.56633723 326.88879851 719.46289062 330.9732666 C721.52322215 331.92012898 723.58231294 332.86963811 725.64111328 333.81982422 C754.70437537 347.21378511 783.52899365 355.37809326 815.57470703 357.41845703 C816.81704102 357.49942627 818.059375 357.58039551 819.33935547 357.66381836 C821.80537847 357.81965599 824.27221053 357.96331379 826.73974609 358.09301758 C835.86760221 358.65020407 844.4110875 359.70474131 851.31298828 366.17626953 C853.75714158 369.51782837 853.65393378 372.94724528 853.62158203 376.96533203 C853.64607422 377.79677734 853.67056641 378.62822266 853.69580078 379.48486328 C853.72951871 381.17335333 853.72071765 382.86325165 853.66845703 384.55126953 C853.56550084 386.92922546 853.56550084 386.92922546 853.88720703 389.12939453 C854.0239297 391.65876389 853.94074039 392.77126796 852.62158203 394.96533203 C844.9028211 400.07814415 837.26831305 403.07455382 827.96923828 403.13330078 C827.32172607 403.13762619 826.67421387 403.1419516 826.00708008 403.14640808 C823.89933989 403.15654024 821.7918418 403.15658138 819.68408203 403.15283203 C818.96195526 403.15156311 818.23982849 403.15029419 817.49581909 403.14898682 C757.65714823 402.94835005 706.02568997 376.10024161 653.34472656 350.63110352 C644.46429162 346.34696399 635.5317182 342.18150113 626.58129883 338.04589844 C620.19525735 335.09362394 613.81862035 332.12335631 607.45751953 329.11767578 C606.41513123 328.6251532 606.41513123 328.6251532 605.35168457 328.12268066 C603.93029333 327.45099834 602.50890665 326.77930637 601.08752441 326.10760498 C587.84875806 319.8536931 574.56256495 313.71612474 561.22387695 307.6784668 C559.8473174 307.05536799 558.47077126 306.43223956 557.09423828 305.80908203 C556.40732407 305.49813095 555.72040985 305.18717987 555.01268005 304.86680603 C546.74250964 301.1194179 538.49480195 297.32322457 530.24658203 293.52783203 C518.21200455 287.99139028 506.17142994 282.46846166 494.12158203 276.96533203 C481.33428346 271.12503647 468.55655376 265.26421992 455.7845459 259.39056396 C447.51059122 255.58566905 439.23491603 251.78473193 430.94970703 248.00439453 C429.88813385 247.52001419 429.88813385 247.52001419 428.80511475 247.02584839 C427.37613966 246.37385994 425.94716424 245.72187223 424.51818848 245.06988525 C409.38179436 238.1627488 394.27765882 231.18768777 379.18579102 224.18383789 C377.45476048 223.38051689 375.72372206 222.57721286 373.99267578 221.77392578 C373.13500107 221.3759227 372.27732635 220.97791962 371.3936615 220.56785583 C362.90300994 216.62928673 354.40366365 212.70964629 345.90365601 208.7913208 C329.99050499 201.45526045 314.09887565 194.07485073 298.2265625 186.65087891 C294.53737195 184.92595871 290.84728516 183.20297267 287.15673828 181.48095703 C286.22589417 181.04662354 286.22589417 181.04662354 285.27624512 180.60351562 C283.39137605 179.72408116 281.50648367 178.84469667 279.62158203 177.96533203 C272.22576297 174.51495476 264.83040544 171.0636192 257.43798828 167.60595703 C236.86557975 157.98730842 216.24940755 148.46448426 195.62158203 138.96533203 C194.82266541 138.59734497 194.02374878 138.22935791 193.20062256 137.85021973 C187.71673843 135.32435861 182.23211934 132.80010091 176.74658203 130.27783203 C175.98218811 129.92636108 175.21779419 129.57489014 174.43023682 129.21276855 C166.35039184 125.4989926 158.26548359 121.7969704 150.16455078 118.12939453 C149.48015427 117.81952103 148.79575775 117.50964752 148.09062195 117.19038391 C147.40998184 116.88223251 146.72934174 116.57408112 146.02807617 116.2565918 C131.25135814 109.5663965 116.54867127 102.73282962 101.88200378 95.80482483 C101.18633804 95.47622971 100.4906723 95.14763458 99.77392578 94.80908203 C99.08385941 94.48310532 98.39379303 94.1571286 97.68281555 93.8212738 C90.92580417 90.63197563 84.15103303 87.48166522 77.37158203 84.34033203 C68.4932929 80.22561692 59.61790838 76.1048763 50.75045776 71.96685791 C48.86932129 71.08927736 46.98778045 70.2125682 45.10620117 69.3359375 C38.65106809 66.32644591 32.20588899 63.29748186 25.77392578 60.23876953 C10.3848009 52.93413684 -5.09568788 45.9703856 -20.83276367 39.44384766 C-21.50272369 39.1647052 -22.17268372 38.88556274 -22.86294556 38.59796143 C-24.6702025 37.84596225 -26.47967479 37.09929336 -28.28930664 36.35302734 C-34.10546588 33.7402834 -39.55373192 30.89437602 -42.37841797 24.96533203 C-43.46829838 18.06516201 -44.08674259 10.34422932 -39.94091797 4.34033203 C-38.26123047 2.58251953 -38.26123047 2.58251953 -36.37841797 0.96533203 C-35.73646484 0.36978516 -35.09451172 -0.22576172 -34.43310547 -0.83935547 C-23.46448125 -9.62234977 -11.65904384 -4.55479737 0 0 Z " fill="#C39E5E" transform="translate(3373.37841796875,1960.03466796875)"/>
<path d="M0 0 C0.83676773 -0.00095673 1.67353546 -0.00191345 2.53565979 -0.00289917 C4.29631628 -0.00357629 6.05697533 -0.00175485 7.81762695 0.00244141 C10.49240813 0.00778951 13.1670209 0.00248392 15.84179688 -0.00390625 C17.56119828 -0.00324525 19.28059959 -0.00196365 21 0 C21.78982773 -0.00202423 22.57965546 -0.00404846 23.39341736 -0.00613403 C37.88588698 0.05416416 37.88588698 0.05416416 42.06640625 4.1328125 C42.67123222 6.46199799 42.67123222 6.46199799 42.80831909 9.16247559 C42.86358639 10.1455217 42.91885368 11.12856781 42.97579575 12.1414032 C43.00569721 13.12856827 43.03559868 14.11573334 43.06640625 15.1328125 C43.09263187 15.99103104 43.1188575 16.84924957 43.14587784 17.73347473 C43.19552354 20.37589386 43.20166158 23.01533809 43.19580078 25.65820312 C43.19753044 26.66343647 43.1992601 27.66866982 43.20104218 28.70436478 C43.20540313 32.06594732 43.2024354 35.42747925 43.19921875 38.7890625 C43.20023979 41.24448664 43.2015823 43.69991066 43.20321655 46.15533447 C43.20566522 52.19318481 43.20273239 58.23101133 43.1969713 64.26885772 C43.19229026 69.22794498 43.18991565 74.18702892 43.1887207 79.14611816 C43.16516609 161.47602671 42.59621893 243.80491786 42.06640625 326.1328125 C42.79850752 326.06513703 43.53060879 325.99746157 44.28489494 325.92773533 C51.40314489 325.29798057 58.48667392 324.91902733 65.62939453 324.74389648 C67.26185371 324.69978638 67.26185371 324.69978638 68.92729187 324.65478516 C72.49701835 324.55931977 76.0668504 324.46889868 79.63671875 324.37890625 C82.16128994 324.31324893 84.68585651 324.24741404 87.2104187 324.18141174 C92.50415543 324.04384794 97.79794851 323.9088072 103.09179688 323.77563477 C109.77275354 323.60750745 116.45348528 323.4317968 123.13420486 323.25447655 C150.45407289 322.53274974 177.73608085 321.94760405 205.06640625 322.1328125 C205.06640625 340.2828125 205.06640625 358.4328125 205.06640625 377.1328125 C131.80640625 377.1328125 58.54640625 377.1328125 -16.93359375 377.1328125 C-20.55775707 368.97844504 -22.05655621 364.45849782 -22.0622282 355.95079231 C-22.06545265 354.72459116 -22.0686771 353.49839001 -22.07199925 352.23503125 C-22.07052827 350.88260902 -22.06896056 349.5301869 -22.06730652 348.17776489 C-22.06917543 346.73460737 -22.07147646 345.29145035 -22.07417184 343.84829414 C-22.08028624 339.88673852 -22.08015667 335.92520401 -22.07897747 331.96364474 C-22.07877337 327.68952532 -22.08429303 323.41541266 -22.08903503 319.14129639 C-22.09733998 310.76935688 -22.1000898 302.39742441 -22.10064741 294.02548112 C-22.10112261 287.22077134 -22.10317754 280.41606388 -22.10634804 273.61135483 C-22.11515388 254.3191929 -22.11976748 235.02703654 -22.11901756 215.73487259 C-22.11897761 214.69491835 -22.11893765 213.6549641 -22.11889648 212.58349609 C-22.1188556 211.54227242 -22.11881472 210.50104874 -22.1187726 209.42827283 C-22.11836606 192.54994864 -22.12793778 175.67164675 -22.14203485 158.79332902 C-22.15639509 141.46322867 -22.16330524 124.1331392 -22.16244107 106.80303276 C-22.162109 97.07329038 -22.16486063 87.3435714 -22.17561913 77.61383438 C-22.18471944 69.33065167 -22.1869032 61.04750295 -22.1801097 52.76431741 C-22.17684224 48.5385548 -22.17679599 44.31285741 -22.18546295 40.08710098 C-22.19331877 36.21703067 -22.19190593 32.34707742 -22.18317882 28.47701 C-22.18164182 27.07867081 -22.18346754 25.68032293 -22.1890389 24.281994 C-22.25407762 6.79707175 -22.25407762 6.79707175 -18.24609375 2.1953125 C-12.60963992 -0.39440953 -6.09276237 -0.01557508 0 0 Z " fill="#C29D5D" transform="translate(3845.93359375,2556.8671875)"/>
<path d="M0 0 C58.08 0 116.16 0 176 0 C176 15.51 176 31.02 176 47 C155.21 47 134.42 47 113 47 C113 140.06 113 233.12 113 329 C133.79 329 154.58 329 176 329 C176 344.51 176 360.02 176 376 C117.92 376 59.84 376 0 376 C0 360.49 0 344.98 0 329 C19.14 329 38.28 329 58 329 C58 235.94 58 142.88 58 47 C38.86 47 19.72 47 0 47 C0 31.49 0 15.98 0 0 Z " fill="#C29D5D" transform="translate(3579,2558)"/>
<path d="M0 0 C3.87307477 0.19047909 5.01182891 1.01173075 7.82421875 3.80078125 C8.79125453 4.9609596 9.74539625 6.13198632 10.6875 7.3125 C11.17283203 7.89451172 11.65816406 8.47652344 12.15820312 9.07617188 C14.51754097 11.94968266 16.37815224 14.64521902 18 18 C18.97269646 19.02657761 19.97740323 20.02311932 21 21 C22.54093388 22.77440871 24.0599468 24.56797556 25.5625 26.375 C26.34753906 27.31085937 27.13257812 28.24671875 27.94140625 29.2109375 C30 32 30 32 32 37 C26.06 37.495 26.06 37.495 20 38 C21.24685757 39.58580914 22.49763026 41.1685404 23.75 42.75 C24.44609375 43.63171875 25.1421875 44.5134375 25.859375 45.421875 C27.7998135 47.75889947 29.85021029 49.85945669 32 52 C33 53.66666667 34 55.33333333 35 57 C38.80365692 62.77157708 38.80365692 62.77157708 44 67 C44 67.99 44 68.98 44 70 C36.74 70.33 29.48 70.66 22 71 C27.20155859 78.32824856 27.20155859 78.32824856 30.6875 81.6875 C33 84 33 84 34.3046875 86.20703125 C36.42394422 89.69843345 38.89293072 92.81162404 41.4375 96 C41.91509766 96.60328125 42.39269531 97.2065625 42.88476562 97.828125 C43.81901164 99.00714603 44.75562258 100.18429778 45.69482422 101.359375 C46.88398314 102.85416512 48.05437749 104.3638345 49.22265625 105.875 C50.82612682 108.07938181 50.82612682 108.07938181 53 109 C53 110.32 53 111.64 53 113 C47.94629268 113.02474322 42.89262074 113.04288053 37.83886719 113.05493164 C36.12011094 113.0599563 34.40135895 113.0667771 32.68261719 113.07543945 C30.21027574 113.0875868 27.73799088 113.09324703 25.265625 113.09765625 C24.11540863 113.10539818 24.11540863 113.10539818 22.94195557 113.11329651 C19.38066931 113.11366987 16.4832699 112.87081748 13 112 C13 115.63 13 119.26 13 123 C6.4 123 -0.2 123 -7 123 C-7 119.37 -7 115.74 -7 112 C-9.475 112.495 -9.475 112.495 -12 113 C-14.65163055 113.08160753 -17.27525473 113.11671195 -19.92578125 113.09765625 C-21.04716743 113.09553383 -21.04716743 113.09553383 -22.19120789 113.09336853 C-24.56501365 113.08779764 -26.93872303 113.0752506 -29.3125 113.0625 C-30.92773301 113.05748123 -32.5429675 113.05291899 -34.15820312 113.04882812 C-38.10550555 113.03783775 -42.05273647 113.02059332 -46 113 C-45.34158753 109.32030248 -44.64301167 107.07331135 -42.3125 104.125 C-41.508125 103.09826172 -41.508125 103.09826172 -40.6875 102.05078125 C-38.64235464 99.56536154 -36.54869892 97.12982277 -34.39453125 94.73828125 C-32.91100725 92.97216418 -32.91100725 92.97216418 -31.63671875 90.703125 C-29.65376423 87.42817386 -27.35528276 84.44741283 -25 81.4375 C-22.3093395 77.97525304 -19.63112969 74.50817292 -17 71 C-23.93 70.67 -30.86 70.34 -38 70 C-36.23926369 65.59815924 -34.94688015 63.49908832 -32 60 C-30.42938052 57.94367635 -28.86707298 55.88098141 -27.3125 53.8125 C-26.52488281 52.76707031 -25.73726562 51.72164062 -24.92578125 50.64453125 C-23.02445331 48.18641089 -23.02445331 48.18641089 -22 46 C-21.34 46 -20.68 46 -20 46 C-19.731875 45.4225 -19.46375 44.845 -19.1875 44.25 C-18 42 -18 42 -15 38 C-18.63 37.67 -22.26 37.34 -26 37 C-25.02763605 32.13818027 -24.5737972 31.03842568 -21.5625 27.5 C-18.26729397 23.53748522 -15.06429512 19.53272393 -11.9375 15.4375 C-7.98081859 10.2740042 -4.00203181 5.12843149 0 0 Z " fill="#C39E5E" transform="translate(3337,2277)"/>
<path d="M0 0 C0.33 0 0.66 0 1 0 C1 3.3 1 6.6 1 10 C0.67 10 0.34 10 0 10 C0 6.7 0 3.4 0 0 Z " fill="#143524" transform="translate(3141,2286)"/>
<path d="M0 0 C0.33 0.66 0.66 1.32 1 2 C0.01 2.99 -0.98 3.98 -2 5 C-2 3.68 -2 2.36 -2 1 C-1.34 0.67 -0.68 0.34 0 0 Z " fill="#143524" transform="translate(3153,2263)"/>
<path d="M0 0 C0.33 0.99 0.66 1.98 1 3 C0.01 3.495 0.01 3.495 -1 4 C-0.67 2.68 -0.34 1.36 0 0 Z " fill="#143524" transform="translate(3151,2294)"/>
<path d="M0 0 C1.65 0 3.3 0 5 0 C5 0.33 5 0.66 5 1 C3.35 1 1.7 1 0 1 C0 0.67 0 0.34 0 0 Z " fill="#C7A260" transform="translate(3403,2379)"/>
<path d="M0 0 C0.99 0.495 0.99 0.495 2 1 C1.34 1.66 0.68 2.32 0 3 C0 2.01 0 1.02 0 0 Z " fill="#143524" transform="translate(3141,2267)"/>
<path d="" fill="#143524" transform="translate(0,0)"/>
<path d="M0 0 C2 1 2 1 2 1 Z " fill="#B9985A" transform="translate(3169,2188)"/>
<path d="" fill="#C39E5E" transform="translate(0,0)"/>
</svg>
